<svg xmlns="http://www.w3.org/2000/svg" width="1180" height="800" viewBox="0 0 1180 800" role="img" aria-labelledby="title desc">
  <title id="title">Oracle progress diagnosis</title>
  <desc id="desc">Comparison of baseline and targeted anti-plateau policies under CLIP and DINOv2 evaluation.</desc>
  <style>
    .bg { fill: #fbfaf6; }
    .axis { stroke: #475467; stroke-width: 2.0; }
    .grid { stroke: #ddd4c5; stroke-width: 1.0; }
    .title { font: 700 28px Georgia, 'Times New Roman', serif; fill: #1f2937; }
    .subtitle { font: 16px Georgia, 'Times New Roman', serif; fill: #334155; }
    .tick { font: 14px Georgia, 'Times New Roman', serif; fill: #334155; }
    .panel { font: 700 18px Georgia, 'Times New Roman', serif; fill: #1f2937; }
    .legend { font: 14px Georgia, 'Times New Roman', serif; fill: #1f2937; }
    .baseline { fill: none; stroke: #94a3b8; stroke-width: 1.8; stroke-dasharray: 8 6; opacity: 0.75; }
  </style>
  <rect class="bg" width="1180" height="800"/>
  <text class="title" x="72" y="46">Oracle Progress Diagnosis</text>
  <text class="subtitle" x="72" y="72">Focused compact comparison for incumbent lock-in, richer feedback, and softer oracle selection.</text>
  <text class="panel" x="92" y="102">CLIP cosine to target</text>
  <line class="axis" x1="92" y1="120" x2="92" y2="370"/>
  <line class="axis" x1="92" y1="370" x2="1116" y2="370"/>
  <line class="grid" x1="92" y1="370.0" x2="1116" y2="370.0"/>
  <text class="tick" x="82" y="374.0" text-anchor="end">0.806</text>
  <line class="grid" x1="92" y1="307.5" x2="1116" y2="307.5"/>
  <text class="tick" x="82" y="311.5" text-anchor="end">0.833</text>
  <line class="grid" x1="92" y1="245.0" x2="1116" y2="245.0"/>
  <text class="tick" x="82" y="249.0" text-anchor="end">0.860</text>
  <line class="grid" x1="92" y1="182.5" x2="1116" y2="182.5"/>
  <text class="tick" x="82" y="186.5" text-anchor="end">0.887</text>
  <line class="grid" x1="92" y1="120.0" x2="1116" y2="120.0"/>
  <text class="tick" x="82" y="124.0" text-anchor="end">0.914</text>
  <line class="grid" x1="92.0" y1="120" x2="92.0" y2="370"/>
  <text class="tick" x="92.0" y="392" text-anchor="middle">1</text>
  <line class="grid" x1="296.8" y1="120" x2="296.8" y2="370"/>
  <text class="tick" x="296.8" y="392" text-anchor="middle">2</text>
  <line class="grid" x1="501.6" y1="120" x2="501.6" y2="370"/>
  <text class="tick" x="501.6" y="392" text-anchor="middle">3</text>
  <line class="grid" x1="706.4" y1="120" x2="706.4" y2="370"/>
  <text class="tick" x="706.4" y="392" text-anchor="middle">4</text>
  <line class="grid" x1="911.2" y1="120" x2="911.2" y2="370"/>
  <text class="tick" x="911.2" y="392" text-anchor="middle">5</text>
  <line class="grid" x1="1116.0" y1="120" x2="1116.0" y2="370"/>
  <text class="tick" x="1116.0" y="392" text-anchor="middle">6</text>
  <polyline class="baseline" points="92.0,298.2 296.8,298.2 501.6,298.2 706.4,298.2 911.2,298.2 1116.0,298.2"/>
  <polyline fill="none" stroke="#6b4f2a" stroke-width="3.4" points="92.0,232.9 296.8,202.0 501.6,202.0 706.4,202.0 911.2,182.2 1116.0,173.8"/>
  <polyline fill="none" stroke="#2563eb" stroke-width="3.4" points="92.0,214.2 296.8,212.0 501.6,212.2 706.4,202.3 911.2,202.3 1116.0,208.8"/>
  <polyline fill="none" stroke="#0f766e" stroke-width="3.4" points="92.0,262.1 296.8,249.4 501.6,211.6 706.4,215.9 911.2,205.4 1116.0,228.1"/>
  <polyline fill="none" stroke="#334155" stroke-width="3.4" points="92.0,247.6 296.8,235.6 501.6,262.0 706.4,208.4 911.2,208.4 1116.0,241.0"/>
  <polyline fill="none" stroke="#334155" stroke-width="3.4" points="92.0,259.5 296.8,197.0 501.6,197.0 706.4,195.8 911.2,178.8 1116.0,166.0"/>
  <text class="panel" x="92" y="408">DINOv2 cosine to target</text>
  <line class="axis" x1="92" y1="426" x2="92" y2="676"/>
  <line class="axis" x1="92" y1="676" x2="1116" y2="676"/>
  <line class="grid" x1="92" y1="676.0" x2="1116" y2="676.0"/>
  <text class="tick" x="82" y="680.0" text-anchor="end">0.298</text>
  <line class="grid" x1="92" y1="613.5" x2="1116" y2="613.5"/>
  <text class="tick" x="82" y="617.5" text-anchor="end">0.386</text>
  <line class="grid" x1="92" y1="551.0" x2="1116" y2="551.0"/>
  <text class="tick" x="82" y="555.0" text-anchor="end">0.474</text>
  <line class="grid" x1="92" y1="488.5" x2="1116" y2="488.5"/>
  <text class="tick" x="82" y="492.5" text-anchor="end">0.562</text>
  <line class="grid" x1="92" y1="426.0" x2="1116" y2="426.0"/>
  <text class="tick" x="82" y="430.0" text-anchor="end">0.650</text>
  <line class="grid" x1="92.0" y1="426" x2="92.0" y2="676"/>
  <text class="tick" x="92.0" y="698" text-anchor="middle">1</text>
  <line class="grid" x1="296.8" y1="426" x2="296.8" y2="676"/>
  <text class="tick" x="296.8" y="698" text-anchor="middle">2</text>
  <line class="grid" x1="501.6" y1="426" x2="501.6" y2="676"/>
  <text class="tick" x="501.6" y="698" text-anchor="middle">3</text>
  <line class="grid" x1="706.4" y1="426" x2="706.4" y2="676"/>
  <text class="tick" x="706.4" y="698" text-anchor="middle">4</text>
  <line class="grid" x1="911.2" y1="426" x2="911.2" y2="676"/>
  <text class="tick" x="911.2" y="698" text-anchor="middle">5</text>
  <line class="grid" x1="1116.0" y1="426" x2="1116.0" y2="676"/>
  <text class="tick" x="1116.0" y="698" text-anchor="middle">6</text>
  <polyline class="baseline" points="92.0,589.9 296.8,589.9 501.6,589.9 706.4,589.9 911.2,589.9 1116.0,589.9"/>
  <polyline fill="none" stroke="#6b4f2a" stroke-width="3.4" points="92.0,445.6 296.8,500.3 501.6,483.6 706.4,525.5 911.2,539.3 1116.0,532.1"/>
  <polyline fill="none" stroke="#2563eb" stroke-width="3.4" points="92.0,585.9 296.8,539.5 501.6,507.2 706.4,452.3 911.2,516.8 1116.0,516.8"/>
  <polyline fill="none" stroke="#0f766e" stroke-width="3.4" points="92.0,531.9 296.8,531.9 501.6,537.0 706.4,471.0 911.2,489.6 1116.0,493.5"/>
  <polyline fill="none" stroke="#334155" stroke-width="3.4" points="92.0,538.8 296.8,487.8 501.6,525.9 706.4,487.1 911.2,524.9 1116.0,473.8"/>
  <polyline fill="none" stroke="#334155" stroke-width="3.4" points="92.0,582.2 296.8,493.4 501.6,541.6 706.4,440.2 911.2,536.0 1116.0,575.5"/>
  <line x1="820" y1="84" x2="852" y2="84" stroke="#6b4f2a" stroke-width="3.4"/>
  <text class="legend" x="862" y="89">baseline clip</text>
  <line x1="820" y1="108" x2="852" y2="108" stroke="#2563eb" stroke-width="3.4"/>
  <text class="legend" x="862" y="113">bt progress</text>
  <line x1="820" y1="132" x2="852" y2="132" stroke="#0f766e" stroke-width="3.4"/>
  <text class="legend" x="862" y="137">pareto listwise</text>
  <line x1="820" y1="156" x2="852" y2="156" stroke="#334155" stroke-width="3.4"/>
  <text class="legend" x="862" y="161">restart directional</text>
  <line x1="820" y1="180" x2="852" y2="180" stroke="#334155" stroke-width="3.4"/>
  <text class="legend" x="862" y="185">restart advantage</text>
  <line x1="820" y1="212" x2="852" y2="212" class="baseline"/>
  <text class="legend" x="862" y="217">prompt-only baseline</text>
</svg>
