<svg xmlns="http://www.w3.org/2000/svg" width="1180" height="780" viewBox="0 0 1180 780" role="img" aria-labelledby="title desc">
  <title id="title">Budget-matched direct baseline comparison at selected checkpoints</title>
  <desc id="desc">Two-panel grouped bar chart comparing direct baselines and StableSteering at baseline, round 1, round 3, and final under a shared 20-image budget.</desc>
  <style>
    .bg { fill: #fbfaf6; }
    .axis { stroke: #475467; stroke-width: 2.1; }
    .grid { stroke: #e2d8c8; stroke-width: 1.0; }
    .title { font: 700 29px Georgia, 'Times New Roman', serif; fill: #1f2937; }
    .subtitle { font: 16px Georgia, 'Times New Roman', serif; fill: #334155; }
    .tick { font: 14px Georgia, 'Times New Roman', serif; fill: #334155; }
    .panel { font: 700 18px Georgia, 'Times New Roman', serif; fill: #1f2937; }
    .legend { font: 14px Georgia, 'Times New Roman', serif; fill: #1f2937; }
    .group { font: 700 15px Georgia, 'Times New Roman', serif; fill: #334155; }
    .value { font: 12px Georgia, 'Times New Roman', serif; fill: #1f2937; }
  </style>
  <rect class="bg" width="1180" height="780"/>
  <text class="title" x="70" y="50">Budget-Matched Direct Baselines at Selected Checkpoints</text>
  <text class="subtitle" x="70" y="77">Bars show mean best-so-far recovery at baseline, round 1, round 3, and final under the same 20-image budget.</text>
  <text class="panel" x="92" y="130">CLIP cosine to target</text>
  <line class="axis" x1="92" y1="150" x2="92" y2="395"/>
  <line class="axis" x1="92" y1="395" x2="1138" y2="395"/>
  <line class="grid" x1="92" y1="395.0" x2="1138" y2="395.0"/>
  <text class="tick" x="80" y="399.0" text-anchor="end">0.814</text>
  <line class="grid" x1="92" y1="333.8" x2="1138" y2="333.8"/>
  <text class="tick" x="80" y="337.8" text-anchor="end">0.835</text>
  <line class="grid" x1="92" y1="272.5" x2="1138" y2="272.5"/>
  <text class="tick" x="80" y="276.5" text-anchor="end">0.855</text>
  <line class="grid" x1="92" y1="211.2" x2="1138" y2="211.2"/>
  <text class="tick" x="80" y="215.2" text-anchor="end">0.875</text>
  <line class="grid" x1="92" y1="150.0" x2="1138" y2="150.0"/>
  <text class="tick" x="80" y="154.0" text-anchor="end">0.896</text>
  <text class="group" x="250.0" y="423" text-anchor="middle">Baseline</text>
  <rect x="164.0" y="349.9" width="34" height="45.1" rx="3" fill="#1d4ed8" opacity="0.92"/>
  <text class="value" x="181.0" y="341.9" text-anchor="middle">0.829</text>
  <rect x="210.0" y="349.9" width="34" height="45.1" rx="3" fill="#8b5e34" opacity="0.92"/>
  <text class="value" x="227.0" y="341.9" text-anchor="middle">0.829</text>
  <rect x="256.0" y="349.9" width="34" height="45.1" rx="3" fill="#7c3aed" opacity="0.92"/>
  <text class="value" x="273.0" y="341.9" text-anchor="middle">0.829</text>
  <rect x="302.0" y="349.9" width="34" height="45.1" rx="3" fill="#15803d" opacity="0.92"/>
  <text class="value" x="319.0" y="341.9" text-anchor="middle">0.829</text>
  <text class="group" x="434.0" y="423" text-anchor="middle">Round 1</text>
  <rect x="348.0" y="255.1" width="34" height="139.9" rx="3" fill="#1d4ed8" opacity="0.92"/>
  <text class="value" x="365.0" y="247.1" text-anchor="middle">0.861</text>
  <rect x="394.0" y="269.0" width="34" height="126.0" rx="3" fill="#8b5e34" opacity="0.92"/>
  <text class="value" x="411.0" y="261.0" text-anchor="middle">0.856</text>
  <rect x="440.0" y="250.4" width="34" height="144.6" rx="3" fill="#7c3aed" opacity="0.92"/>
  <text class="value" x="457.0" y="242.4" text-anchor="middle">0.862</text>
  <rect x="486.0" y="255.2" width="34" height="139.8" rx="3" fill="#15803d" opacity="0.92"/>
  <text class="value" x="503.0" y="247.2" text-anchor="middle">0.861</text>
  <text class="group" x="618.0" y="423" text-anchor="middle">Round 3</text>
  <rect x="532.0" y="232.6" width="34" height="162.4" rx="3" fill="#1d4ed8" opacity="0.92"/>
  <text class="value" x="549.0" y="224.6" text-anchor="middle">0.868</text>
  <rect x="578.0" y="237.4" width="34" height="157.6" rx="3" fill="#8b5e34" opacity="0.92"/>
  <text class="value" x="595.0" y="229.4" text-anchor="middle">0.867</text>
  <rect x="624.0" y="211.7" width="34" height="183.3" rx="3" fill="#7c3aed" opacity="0.92"/>
  <text class="value" x="641.0" y="203.7" text-anchor="middle">0.875</text>
  <rect x="670.0" y="221.0" width="34" height="174.0" rx="3" fill="#15803d" opacity="0.92"/>
  <text class="value" x="687.0" y="213.0" text-anchor="middle">0.872</text>
  <text class="group" x="802.0" y="423" text-anchor="middle">Final</text>
  <rect x="716.0" y="195.1" width="34" height="199.9" rx="3" fill="#1d4ed8" opacity="0.92"/>
  <text class="value" x="733.0" y="187.1" text-anchor="middle">0.881</text>
  <rect x="762.0" y="218.2" width="34" height="176.8" rx="3" fill="#8b5e34" opacity="0.92"/>
  <text class="value" x="779.0" y="210.2" text-anchor="middle">0.873</text>
  <rect x="808.0" y="211.7" width="34" height="183.3" rx="3" fill="#7c3aed" opacity="0.92"/>
  <text class="value" x="825.0" y="203.7" text-anchor="middle">0.875</text>
  <rect x="854.0" y="218.1" width="34" height="176.9" rx="3" fill="#15803d" opacity="0.92"/>
  <text class="value" x="871.0" y="210.1" text-anchor="middle">0.873</text>
  <text class="panel" x="92" y="461">DINOv2 cosine to target</text>
  <line class="axis" x1="92" y1="481" x2="92" y2="726"/>
  <line class="axis" x1="92" y1="726" x2="1138" y2="726"/>
  <line class="grid" x1="92" y1="726.0" x2="1138" y2="726.0"/>
  <text class="tick" x="80" y="730.0" text-anchor="end">0.442</text>
  <line class="grid" x1="92" y1="664.8" x2="1138" y2="664.8"/>
  <text class="tick" x="80" y="668.8" text-anchor="end">0.488</text>
  <line class="grid" x1="92" y1="603.5" x2="1138" y2="603.5"/>
  <text class="tick" x="80" y="607.5" text-anchor="end">0.534</text>
  <line class="grid" x1="92" y1="542.2" x2="1138" y2="542.2"/>
  <text class="tick" x="80" y="546.2" text-anchor="end">0.580</text>
  <line class="grid" x1="92" y1="481.0" x2="1138" y2="481.0"/>
  <text class="tick" x="80" y="485.0" text-anchor="end">0.627</text>
  <text class="group" x="250.0" y="754" text-anchor="middle">Baseline</text>
  <rect x="164.0" y="692.8" width="34" height="33.2" rx="3" fill="#1d4ed8" opacity="0.92"/>
  <text class="value" x="181.0" y="684.8" text-anchor="middle">0.467</text>
  <rect x="210.0" y="692.8" width="34" height="33.2" rx="3" fill="#8b5e34" opacity="0.92"/>
  <text class="value" x="227.0" y="684.8" text-anchor="middle">0.467</text>
  <rect x="256.0" y="692.8" width="34" height="33.2" rx="3" fill="#7c3aed" opacity="0.92"/>
  <text class="value" x="273.0" y="684.8" text-anchor="middle">0.467</text>
  <rect x="302.0" y="692.8" width="34" height="33.2" rx="3" fill="#15803d" opacity="0.92"/>
  <text class="value" x="319.0" y="684.8" text-anchor="middle">0.467</text>
  <text class="group" x="434.0" y="754" text-anchor="middle">Round 1</text>
  <rect x="348.0" y="618.6" width="34" height="107.4" rx="3" fill="#1d4ed8" opacity="0.92"/>
  <text class="value" x="365.0" y="610.6" text-anchor="middle">0.523</text>
  <rect x="394.0" y="610.7" width="34" height="115.3" rx="3" fill="#8b5e34" opacity="0.92"/>
  <text class="value" x="411.0" y="602.7" text-anchor="middle">0.529</text>
  <rect x="440.0" y="631.0" width="34" height="95.0" rx="3" fill="#7c3aed" opacity="0.92"/>
  <text class="value" x="457.0" y="623.0" text-anchor="middle">0.514</text>
  <rect x="486.0" y="529.4" width="34" height="196.6" rx="3" fill="#15803d" opacity="0.92"/>
  <text class="value" x="503.0" y="521.4" text-anchor="middle">0.590</text>
  <text class="group" x="618.0" y="754" text-anchor="middle">Round 3</text>
  <rect x="532.0" y="679.4" width="34" height="46.6" rx="3" fill="#1d4ed8" opacity="0.92"/>
  <text class="value" x="549.0" y="671.4" text-anchor="middle">0.477</text>
  <rect x="578.0" y="621.5" width="34" height="104.5" rx="3" fill="#8b5e34" opacity="0.92"/>
  <text class="value" x="595.0" y="613.5" text-anchor="middle">0.521</text>
  <rect x="624.0" y="651.9" width="34" height="74.1" rx="3" fill="#7c3aed" opacity="0.92"/>
  <text class="value" x="641.0" y="643.9" text-anchor="middle">0.498</text>
  <rect x="670.0" y="589.5" width="34" height="136.5" rx="3" fill="#15803d" opacity="0.92"/>
  <text class="value" x="687.0" y="581.5" text-anchor="middle">0.545</text>
  <text class="group" x="802.0" y="754" text-anchor="middle">Final</text>
  <rect x="716.0" y="574.8" width="34" height="151.2" rx="3" fill="#1d4ed8" opacity="0.92"/>
  <text class="value" x="733.0" y="566.8" text-anchor="middle">0.556</text>
  <rect x="762.0" y="514.2" width="34" height="211.8" rx="3" fill="#8b5e34" opacity="0.92"/>
  <text class="value" x="779.0" y="506.2" text-anchor="middle">0.602</text>
  <rect x="808.0" y="651.9" width="34" height="74.1" rx="3" fill="#7c3aed" opacity="0.92"/>
  <text class="value" x="825.0" y="643.9" text-anchor="middle">0.498</text>
  <rect x="854.0" y="578.2" width="34" height="147.8" rx="3" fill="#15803d" opacity="0.92"/>
  <text class="value" x="871.0" y="570.2" text-anchor="middle">0.553</text>
  <rect x="742" y="98" width="22" height="14" rx="2" fill="#1d4ed8"/>
  <text class="legend" x="772" y="110">No-update resampling</text>
  <rect x="742" y="123" width="22" height="14" rx="2" fill="#8b5e34"/>
  <text class="legend" x="772" y="135">Prompt-only best-of-budget</text>
  <rect x="742" y="148" width="22" height="14" rx="2" fill="#7c3aed"/>
  <text class="legend" x="772" y="160">Heuristic prompt-rewrite search</text>
  <rect x="742" y="173" width="22" height="14" rx="2" fill="#15803d"/>
  <text class="legend" x="772" y="185">StableSteering best current policy</text>
</svg>
