<svg xmlns="http://www.w3.org/2000/svg" width="1100" height="620" viewBox="0 0 1100 620">
<rect width="100%" height="100%" fill="#fbfaf6"/>
<text x="90" y="42" font-size="28" font-family="Georgia, serif" fill="#1f1b17">Sampler Slice: Oracle Target-Recovery</text>
<text x="90" y="64" font-size="16" font-family="Georgia, serif" fill="#4b3f34">Mean oracle similarity by round</text>
<line x1="90" y1="540.00" x2="1030" y2="540.00" stroke="#e3d7c8" stroke-width="1"/>
<text x="78" y="545.00" text-anchor="end" font-size="14" font-family="Georgia, serif" fill="#4b3f34">0.808</text>
<line x1="90" y1="448.00" x2="1030" y2="448.00" stroke="#e3d7c8" stroke-width="1"/>
<text x="78" y="453.00" text-anchor="end" font-size="14" font-family="Georgia, serif" fill="#4b3f34">0.827</text>
<line x1="90" y1="356.00" x2="1030" y2="356.00" stroke="#e3d7c8" stroke-width="1"/>
<text x="78" y="361.00" text-anchor="end" font-size="14" font-family="Georgia, serif" fill="#4b3f34">0.846</text>
<line x1="90" y1="264.00" x2="1030" y2="264.00" stroke="#e3d7c8" stroke-width="1"/>
<text x="78" y="269.00" text-anchor="end" font-size="14" font-family="Georgia, serif" fill="#4b3f34">0.865</text>
<line x1="90" y1="172.00" x2="1030" y2="172.00" stroke="#e3d7c8" stroke-width="1"/>
<text x="78" y="177.00" text-anchor="end" font-size="14" font-family="Georgia, serif" fill="#4b3f34">0.883</text>
<line x1="90" y1="80.00" x2="1030" y2="80.00" stroke="#e3d7c8" stroke-width="1"/>
<text x="78" y="85.00" text-anchor="end" font-size="14" font-family="Georgia, serif" fill="#4b3f34">0.902</text>
<line x1="90.00" y1="80" x2="90.00" y2="540" stroke="#efe5d8" stroke-width="1"/>
<text x="90.00" y="568" text-anchor="middle" font-size="14" font-family="Georgia, serif" fill="#4b3f34">1</text>
<line x1="325.00" y1="80" x2="325.00" y2="540" stroke="#efe5d8" stroke-width="1"/>
<text x="325.00" y="568" text-anchor="middle" font-size="14" font-family="Georgia, serif" fill="#4b3f34">2</text>
<line x1="560.00" y1="80" x2="560.00" y2="540" stroke="#efe5d8" stroke-width="1"/>
<text x="560.00" y="568" text-anchor="middle" font-size="14" font-family="Georgia, serif" fill="#4b3f34">3</text>
<line x1="795.00" y1="80" x2="795.00" y2="540" stroke="#efe5d8" stroke-width="1"/>
<text x="795.00" y="568" text-anchor="middle" font-size="14" font-family="Georgia, serif" fill="#4b3f34">4</text>
<line x1="1030.00" y1="80" x2="1030.00" y2="540" stroke="#efe5d8" stroke-width="1"/>
<text x="1030.00" y="568" text-anchor="middle" font-size="14" font-family="Georgia, serif" fill="#4b3f34">5</text>
<line x1="90" y1="437.62" x2="1030" y2="437.62" stroke="#6b5e53" stroke-dasharray="8 6" stroke-width="2"/>
<text x="1022" y="429.62" text-anchor="end" font-size="14" font-family="Georgia, serif" fill="#6b5e53">Mean baseline</text>
<polyline points="90.00,209.93 325.00,183.72 560.00,181.50 795.00,181.50 1030.00,178.07" fill="none" stroke="#b24c1a" stroke-width="4" stroke-linecap="round" stroke-linejoin="round"/>
<circle cx="90.00" cy="209.93" r="5" fill="#b24c1a" stroke="#fbfaf6" stroke-width="2"/>
<circle cx="325.00" cy="183.72" r="5" fill="#b24c1a" stroke="#fbfaf6" stroke-width="2"/>
<circle cx="560.00" cy="181.50" r="5" fill="#b24c1a" stroke="#fbfaf6" stroke-width="2"/>
<circle cx="795.00" cy="181.50" r="5" fill="#b24c1a" stroke="#fbfaf6" stroke-width="2"/>
<circle cx="1030.00" cy="178.07" r="5" fill="#b24c1a" stroke="#fbfaf6" stroke-width="2"/>
<polyline points="90.00,363.61 325.00,360.41 560.00,314.39 795.00,279.15 1030.00,253.59" fill="none" stroke="#1f6f8b" stroke-width="4" stroke-linecap="round" stroke-linejoin="round"/>
<circle cx="90.00" cy="363.61" r="5" fill="#1f6f8b" stroke="#fbfaf6" stroke-width="2"/>
<circle cx="325.00" cy="360.41" r="5" fill="#1f6f8b" stroke="#fbfaf6" stroke-width="2"/>
<circle cx="560.00" cy="314.39" r="5" fill="#1f6f8b" stroke="#fbfaf6" stroke-width="2"/>
<circle cx="795.00" cy="279.15" r="5" fill="#1f6f8b" stroke="#fbfaf6" stroke-width="2"/>
<circle cx="1030.00" cy="253.59" r="5" fill="#1f6f8b" stroke="#fbfaf6" stroke-width="2"/>
<polyline points="90.00,246.17 325.00,246.17 560.00,235.38 795.00,179.13 1030.00,179.13" fill="none" stroke="#2d6a4f" stroke-width="4" stroke-linecap="round" stroke-linejoin="round"/>
<circle cx="90.00" cy="246.17" r="5" fill="#2d6a4f" stroke="#fbfaf6" stroke-width="2"/>
<circle cx="325.00" cy="246.17" r="5" fill="#2d6a4f" stroke="#fbfaf6" stroke-width="2"/>
<circle cx="560.00" cy="235.38" r="5" fill="#2d6a4f" stroke="#fbfaf6" stroke-width="2"/>
<circle cx="795.00" cy="179.13" r="5" fill="#2d6a4f" stroke="#fbfaf6" stroke-width="2"/>
<circle cx="1030.00" cy="179.13" r="5" fill="#2d6a4f" stroke="#fbfaf6" stroke-width="2"/>
<polyline points="90.00,356.81 325.00,263.77 560.00,241.34 795.00,241.34 1030.00,209.19" fill="none" stroke="#7c3aed" stroke-width="4" stroke-linecap="round" stroke-linejoin="round"/>
<circle cx="90.00" cy="356.81" r="5" fill="#7c3aed" stroke="#fbfaf6" stroke-width="2"/>
<circle cx="325.00" cy="263.77" r="5" fill="#7c3aed" stroke="#fbfaf6" stroke-width="2"/>
<circle cx="560.00" cy="241.34" r="5" fill="#7c3aed" stroke="#fbfaf6" stroke-width="2"/>
<circle cx="795.00" cy="241.34" r="5" fill="#7c3aed" stroke="#fbfaf6" stroke-width="2"/>
<circle cx="1030.00" cy="209.19" r="5" fill="#7c3aed" stroke="#fbfaf6" stroke-width="2"/>
<rect x="790" y="94" width="220" height="126" rx="14" fill="#fffdfa" stroke="#d8cbb9"/>
<line x1="804" y1="118" x2="824" y2="118" stroke="#b24c1a" stroke-width="4" stroke-linecap="round"/>
<text x="832" y="123" font-size="13" font-family="Georgia, serif" fill="#1f1b17">Diversity shell</text>
<line x1="804" y1="140" x2="824" y2="140" stroke="#1f6f8b" stroke-width="4" stroke-linecap="round"/>
<text x="832" y="145" font-size="13" font-family="Georgia, serif" fill="#1f1b17">Exploit orthogonal</text>
<line x1="804" y1="162" x2="824" y2="162" stroke="#2d6a4f" stroke-width="4" stroke-linecap="round"/>
<text x="832" y="167" font-size="13" font-family="Georgia, serif" fill="#1f1b17">Line search</text>
<line x1="804" y1="184" x2="824" y2="184" stroke="#7c3aed" stroke-width="4" stroke-linecap="round"/>
<text x="832" y="189" font-size="13" font-family="Georgia, serif" fill="#1f1b17">Random local</text>
</svg>