<svg xmlns="http://www.w3.org/2000/svg" width="1160" height="780" viewBox="0 0 1160 780" role="img" aria-labelledby="title desc">
  <title id="title">Incumbent-policy oracle comparison</title>
  <desc id="desc">Budget-matched oracle comparison across baseline carry-forward, soft incumbent penalty, and hard cooldown policies under CLIP and DINOv2 evaluation.</desc>
  <style>
    .bg { fill: #fbfaf6; }
    .axis { stroke: #475467; stroke-width: 2.0; }
    .grid { stroke: #ddd4c5; stroke-width: 1.0; }
    .title { font: 700 28px Georgia, 'Times New Roman', serif; fill: #1f2937; }
    .subtitle { font: 16px Georgia, 'Times New Roman', serif; fill: #334155; }
    .tick { font: 14px Georgia, 'Times New Roman', serif; fill: #334155; }
    .panel { font: 700 18px Georgia, 'Times New Roman', serif; fill: #1f2937; }
    .legend { font: 14px Georgia, 'Times New Roman', serif; fill: #1f2937; }
    .baseline { fill: none; stroke: #94a3b8; stroke-width: 1.8; stroke-dasharray: 8 6; opacity: 0.75; }
  </style>
  <rect class="bg" width="1160" height="780"/>
  <text class="title" x="72" y="46">Budget-Matched Incumbent-Policy Oracle Slice</text>
  <text class="subtitle" x="72" y="72">Same targets, same rounds, same sampler/updater family; only incumbent handling changes.</text>
  <text class="panel" x="92" y="98">CLIP cosine to target</text>
  <line class="axis" x1="92" y1="116" x2="92" y2="364"/>
  <line class="axis" x1="92" y1="364" x2="1100" y2="364"/>
  <line class="grid" x1="92" y1="364.0" x2="1100" y2="364.0"/>
  <text class="tick" x="82" y="368.0" text-anchor="end">0.794</text>
  <line class="grid" x1="92" y1="302.0" x2="1100" y2="302.0"/>
  <text class="tick" x="82" y="306.0" text-anchor="end">0.823</text>
  <line class="grid" x1="92" y1="240.0" x2="1100" y2="240.0"/>
  <text class="tick" x="82" y="244.0" text-anchor="end">0.853</text>
  <line class="grid" x1="92" y1="178.0" x2="1100" y2="178.0"/>
  <text class="tick" x="82" y="182.0" text-anchor="end">0.882</text>
  <line class="grid" x1="92" y1="116.0" x2="1100" y2="116.0"/>
  <text class="tick" x="82" y="120.0" text-anchor="end">0.911</text>
  <line class="grid" x1="92.0" y1="116" x2="92.0" y2="364"/>
  <text class="tick" x="92.0" y="386" text-anchor="middle">1</text>
  <line class="grid" x1="293.6" y1="116" x2="293.6" y2="364"/>
  <text class="tick" x="293.6" y="386" text-anchor="middle">2</text>
  <line class="grid" x1="495.2" y1="116" x2="495.2" y2="364"/>
  <text class="tick" x="495.2" y="386" text-anchor="middle">3</text>
  <line class="grid" x1="696.8" y1="116" x2="696.8" y2="364"/>
  <text class="tick" x="696.8" y="386" text-anchor="middle">4</text>
  <line class="grid" x1="898.4" y1="116" x2="898.4" y2="364"/>
  <text class="tick" x="898.4" y="386" text-anchor="middle">5</text>
  <line class="grid" x1="1100.0" y1="116" x2="1100.0" y2="364"/>
  <text class="tick" x="1100.0" y="386" text-anchor="middle">6</text>
  <polyline class="baseline" points="92.0,321.8 293.6,321.8 495.2,321.8 696.8,321.8 898.4,321.8 1100.0,321.8"/>
  <polyline fill="none" stroke="#6b4f2a" stroke-width="3.4" points="92.0,233.5 293.6,224.9 495.2,181.0 696.8,180.7 898.4,179.3 1100.0,174.9"/>
  <polyline fill="none" stroke="#0f766e" stroke-width="3.4" points="92.0,218.9 293.6,187.5 495.2,189.5 696.8,189.5 898.4,158.2 1100.0,158.2"/>
  <polyline fill="none" stroke="#b45309" stroke-width="3.4" stroke-dasharray="10 6" points="92.0,222.0 293.6,217.4 495.2,203.2 696.8,222.9 898.4,199.3 1100.0,232.4"/>
  <text class="panel" x="92" y="400">DINOv2 cosine to target</text>
  <line class="axis" x1="92" y1="418" x2="92" y2="666"/>
  <line class="axis" x1="92" y1="666" x2="1100" y2="666"/>
  <line class="grid" x1="92" y1="666.0" x2="1100" y2="666.0"/>
  <text class="tick" x="82" y="670.0" text-anchor="end">0.353</text>
  <line class="grid" x1="92" y1="604.0" x2="1100" y2="604.0"/>
  <text class="tick" x="82" y="608.0" text-anchor="end">0.430</text>
  <line class="grid" x1="92" y1="542.0" x2="1100" y2="542.0"/>
  <text class="tick" x="82" y="546.0" text-anchor="end">0.506</text>
  <line class="grid" x1="92" y1="480.0" x2="1100" y2="480.0"/>
  <text class="tick" x="82" y="484.0" text-anchor="end">0.583</text>
  <line class="grid" x1="92" y1="418.0" x2="1100" y2="418.0"/>
  <text class="tick" x="82" y="422.0" text-anchor="end">0.660</text>
  <line class="grid" x1="92.0" y1="418" x2="92.0" y2="666"/>
  <text class="tick" x="92.0" y="688" text-anchor="middle">1</text>
  <line class="grid" x1="293.6" y1="418" x2="293.6" y2="666"/>
  <text class="tick" x="293.6" y="688" text-anchor="middle">2</text>
  <line class="grid" x1="495.2" y1="418" x2="495.2" y2="666"/>
  <text class="tick" x="495.2" y="688" text-anchor="middle">3</text>
  <line class="grid" x1="696.8" y1="418" x2="696.8" y2="666"/>
  <text class="tick" x="696.8" y="688" text-anchor="middle">4</text>
  <line class="grid" x1="898.4" y1="418" x2="898.4" y2="666"/>
  <text class="tick" x="898.4" y="688" text-anchor="middle">5</text>
  <line class="grid" x1="1100.0" y1="418" x2="1100.0" y2="666"/>
  <text class="tick" x="1100.0" y="688" text-anchor="middle">6</text>
  <polyline class="baseline" points="92.0,649.9 293.6,649.9 495.2,649.9 696.8,649.9 898.4,649.9 1100.0,649.9"/>
  <polyline fill="none" stroke="#6b4f2a" stroke-width="3.4" points="92.0,500.1 293.6,543.5 495.2,543.8 696.8,500.2 898.4,489.0 1100.0,480.5"/>
  <polyline fill="none" stroke="#0f766e" stroke-width="3.4" points="92.0,439.0 293.6,434.1 495.2,466.6 696.8,510.7 898.4,491.5 1100.0,437.4"/>
  <polyline fill="none" stroke="#b45309" stroke-width="3.4" stroke-dasharray="10 6" points="92.0,483.7 293.6,451.1 495.2,509.2 696.8,449.7 898.4,476.7 1100.0,492.4"/>
  <line x1="800" y1="84" x2="832" y2="84" stroke="#6b4f2a" stroke-width="3.4"/>
  <text class="legend" x="842" y="89">carry forward baseline</text>
  <line x1="800" y1="110" x2="832" y2="110" stroke="#0f766e" stroke-width="3.4"/>
  <text class="legend" x="842" y="115">soft penalty</text>
  <line x1="800" y1="136" x2="832" y2="136" stroke="#b45309" stroke-width="3.4" stroke-dasharray="10 6"/>
  <text class="legend" x="842" y="141">hard cooldown</text>
  <line x1="800" y1="170" x2="832" y2="170" class="baseline"/>
  <text class="legend" x="842" y="175">prompt-only baseline</text>
</svg>
