<svg xmlns="http://www.w3.org/2000/svg" width="1180" height="800" viewBox="0 0 1180 800" role="img" aria-labelledby="title desc">
  <title id="title">Oracle progress diagnosis</title>
  <desc id="desc">Comparison of baseline and targeted anti-plateau policies under CLIP and DINOv2 evaluation.</desc>
  <style>
    .bg { fill: #fbfaf6; }
    .axis { stroke: #475467; stroke-width: 2.0; }
    .grid { stroke: #ddd4c5; stroke-width: 1.0; }
    .title { font: 700 28px Georgia, 'Times New Roman', serif; fill: #1f2937; }
    .subtitle { font: 16px Georgia, 'Times New Roman', serif; fill: #334155; }
    .tick { font: 14px Georgia, 'Times New Roman', serif; fill: #334155; }
    .panel { font: 700 18px Georgia, 'Times New Roman', serif; fill: #1f2937; }
    .legend { font: 14px Georgia, 'Times New Roman', serif; fill: #1f2937; }
    .baseline { fill: none; stroke: #94a3b8; stroke-width: 1.8; stroke-dasharray: 8 6; opacity: 0.75; }
  </style>
  <rect class="bg" width="1180" height="800"/>
  <text class="title" x="72" y="46">Oracle Progress Diagnosis</text>
  <text class="subtitle" x="72" y="72">Focused compact comparison for incumbent lock-in, richer feedback, and softer oracle selection.</text>
  <text class="panel" x="92" y="102">CLIP cosine to target</text>
  <line class="axis" x1="92" y1="120" x2="92" y2="370"/>
  <line class="axis" x1="92" y1="370" x2="1116" y2="370"/>
  <line class="grid" x1="92" y1="370.0" x2="1116" y2="370.0"/>
  <text class="tick" x="82" y="374.0" text-anchor="end">0.800</text>
  <line class="grid" x1="92" y1="307.5" x2="1116" y2="307.5"/>
  <text class="tick" x="82" y="311.5" text-anchor="end">0.826</text>
  <line class="grid" x1="92" y1="245.0" x2="1116" y2="245.0"/>
  <text class="tick" x="82" y="249.0" text-anchor="end">0.852</text>
  <line class="grid" x1="92" y1="182.5" x2="1116" y2="182.5"/>
  <text class="tick" x="82" y="186.5" text-anchor="end">0.878</text>
  <line class="grid" x1="92" y1="120.0" x2="1116" y2="120.0"/>
  <text class="tick" x="82" y="124.0" text-anchor="end">0.904</text>
  <line class="grid" x1="92.0" y1="120" x2="92.0" y2="370"/>
  <text class="tick" x="92.0" y="392" text-anchor="middle">1</text>
  <line class="grid" x1="296.8" y1="120" x2="296.8" y2="370"/>
  <text class="tick" x="296.8" y="392" text-anchor="middle">2</text>
  <line class="grid" x1="501.6" y1="120" x2="501.6" y2="370"/>
  <text class="tick" x="501.6" y="392" text-anchor="middle">3</text>
  <line class="grid" x1="706.4" y1="120" x2="706.4" y2="370"/>
  <text class="tick" x="706.4" y="392" text-anchor="middle">4</text>
  <line class="grid" x1="911.2" y1="120" x2="911.2" y2="370"/>
  <text class="tick" x="911.2" y="392" text-anchor="middle">5</text>
  <line class="grid" x1="1116.0" y1="120" x2="1116.0" y2="370"/>
  <text class="tick" x="1116.0" y="392" text-anchor="middle">6</text>
  <polyline class="baseline" points="92.0,297.4 296.8,297.4 501.6,297.4 706.4,297.4 911.2,297.4 1116.0,297.4"/>
  <polyline fill="none" stroke="#2563eb" stroke-width="3.4" points="92.0,212.4 296.8,191.1 501.6,191.1 706.4,181.7 911.2,167.7 1116.0,167.7"/>
  <polyline fill="none" stroke="#b45309" stroke-width="3.4" points="92.0,196.6 296.8,196.6 501.6,196.6 706.4,190.9 911.2,181.0 1116.0,187.0"/>
  <polyline fill="none" stroke="#334155" stroke-width="3.4" points="92.0,216.3 296.8,191.7 501.6,191.7 706.4,191.7 911.2,187.5 1116.0,183.1"/>
  <polyline fill="none" stroke="#334155" stroke-width="3.4" points="92.0,189.3 296.8,189.3 501.6,192.3 706.4,184.2 911.2,169.5 1116.0,171.2"/>
  <text class="panel" x="92" y="408">DINOv2 cosine to target</text>
  <line class="axis" x1="92" y1="426" x2="92" y2="676"/>
  <line class="axis" x1="92" y1="676" x2="1116" y2="676"/>
  <line class="grid" x1="92" y1="676.0" x2="1116" y2="676.0"/>
  <text class="tick" x="82" y="680.0" text-anchor="end">0.357</text>
  <line class="grid" x1="92" y1="613.5" x2="1116" y2="613.5"/>
  <text class="tick" x="82" y="617.5" text-anchor="end">0.432</text>
  <line class="grid" x1="92" y1="551.0" x2="1116" y2="551.0"/>
  <text class="tick" x="82" y="555.0" text-anchor="end">0.507</text>
  <line class="grid" x1="92" y1="488.5" x2="1116" y2="488.5"/>
  <text class="tick" x="82" y="492.5" text-anchor="end">0.581</text>
  <line class="grid" x1="92" y1="426.0" x2="1116" y2="426.0"/>
  <text class="tick" x="82" y="430.0" text-anchor="end">0.656</text>
  <line class="grid" x1="92.0" y1="426" x2="92.0" y2="676"/>
  <text class="tick" x="92.0" y="698" text-anchor="middle">1</text>
  <line class="grid" x1="296.8" y1="426" x2="296.8" y2="676"/>
  <text class="tick" x="296.8" y="698" text-anchor="middle">2</text>
  <line class="grid" x1="501.6" y1="426" x2="501.6" y2="676"/>
  <text class="tick" x="501.6" y="698" text-anchor="middle">3</text>
  <line class="grid" x1="706.4" y1="426" x2="706.4" y2="676"/>
  <text class="tick" x="706.4" y="698" text-anchor="middle">4</text>
  <line class="grid" x1="911.2" y1="426" x2="911.2" y2="676"/>
  <text class="tick" x="911.2" y="698" text-anchor="middle">5</text>
  <line class="grid" x1="1116.0" y1="426" x2="1116.0" y2="676"/>
  <text class="tick" x="1116.0" y="698" text-anchor="middle">6</text>
  <polyline class="baseline" points="92.0,637.3 296.8,637.3 501.6,637.3 706.4,637.3 911.2,637.3 1116.0,637.3"/>
  <polyline fill="none" stroke="#2563eb" stroke-width="3.4" points="92.0,527.1 296.8,554.0 501.6,553.1 706.4,486.3 911.2,554.3 1116.0,515.1"/>
  <polyline fill="none" stroke="#b45309" stroke-width="3.4" points="92.0,501.7 296.8,507.0 501.6,566.9 706.4,473.9 911.2,539.8 1116.0,538.4"/>
  <polyline fill="none" stroke="#334155" stroke-width="3.4" points="92.0,529.4 296.8,513.6 501.6,512.9 706.4,515.7 911.2,499.3 1116.0,446.8"/>
  <polyline fill="none" stroke="#334155" stroke-width="3.4" points="92.0,501.9 296.8,498.2 501.6,525.6 706.4,496.8 911.2,442.7 1116.0,447.8"/>
  <line x1="820" y1="84" x2="852" y2="84" stroke="#2563eb" stroke-width="3.4"/>
  <text class="legend" x="862" y="89">sampler upgrade</text>
  <line x1="820" y1="108" x2="852" y2="108" stroke="#b45309" stroke-width="3.4"/>
  <text class="legend" x="862" y="113">full progress</text>
  <line x1="820" y1="132" x2="852" y2="132" stroke="#334155" stroke-width="3.4"/>
  <text class="legend" x="862" y="137">bt clip</text>
  <line x1="820" y1="156" x2="852" y2="156" stroke="#334155" stroke-width="3.4"/>
  <text class="legend" x="862" y="161">bt progress</text>
  <line x1="820" y1="188" x2="852" y2="188" class="baseline"/>
  <text class="legend" x="862" y="193">prompt-only baseline</text>
</svg>
