<svg xmlns="http://www.w3.org/2000/svg" width="1180" height="800" viewBox="0 0 1180 800" role="img" aria-labelledby="title desc">
  <title id="title">Oracle progress diagnosis</title>
  <desc id="desc">Comparison of baseline and targeted anti-plateau policies under CLIP and DINOv2 evaluation.</desc>
  <style>
    .bg { fill: #fbfaf6; }
    .axis { stroke: #475467; stroke-width: 2.0; }
    .grid { stroke: #ddd4c5; stroke-width: 1.0; }
    .title { font: 700 28px Georgia, 'Times New Roman', serif; fill: #1f2937; }
    .subtitle { font: 16px Georgia, 'Times New Roman', serif; fill: #334155; }
    .tick { font: 14px Georgia, 'Times New Roman', serif; fill: #334155; }
    .panel { font: 700 18px Georgia, 'Times New Roman', serif; fill: #1f2937; }
    .legend { font: 14px Georgia, 'Times New Roman', serif; fill: #1f2937; }
    .baseline { fill: none; stroke: #94a3b8; stroke-width: 1.8; stroke-dasharray: 8 6; opacity: 0.75; }
  </style>
  <rect class="bg" width="1180" height="800"/>
  <text class="title" x="72" y="46">Oracle Progress Diagnosis</text>
  <text class="subtitle" x="72" y="72">Focused compact comparison for incumbent lock-in, richer feedback, and softer oracle selection.</text>
  <text class="panel" x="92" y="102">CLIP cosine to target</text>
  <line class="axis" x1="92" y1="120" x2="92" y2="370"/>
  <line class="axis" x1="92" y1="370" x2="1116" y2="370"/>
  <line class="grid" x1="92" y1="370.0" x2="1116" y2="370.0"/>
  <text class="tick" x="82" y="374.0" text-anchor="end">0.793</text>
  <line class="grid" x1="92" y1="307.5" x2="1116" y2="307.5"/>
  <text class="tick" x="82" y="311.5" text-anchor="end">0.816</text>
  <line class="grid" x1="92" y1="245.0" x2="1116" y2="245.0"/>
  <text class="tick" x="82" y="249.0" text-anchor="end">0.838</text>
  <line class="grid" x1="92" y1="182.5" x2="1116" y2="182.5"/>
  <text class="tick" x="82" y="186.5" text-anchor="end">0.861</text>
  <line class="grid" x1="92" y1="120.0" x2="1116" y2="120.0"/>
  <text class="tick" x="82" y="124.0" text-anchor="end">0.883</text>
  <line class="grid" x1="92.0" y1="120" x2="92.0" y2="370"/>
  <text class="tick" x="92.0" y="392" text-anchor="middle">1</text>
  <line class="grid" x1="296.8" y1="120" x2="296.8" y2="370"/>
  <text class="tick" x="296.8" y="392" text-anchor="middle">2</text>
  <line class="grid" x1="501.6" y1="120" x2="501.6" y2="370"/>
  <text class="tick" x="501.6" y="392" text-anchor="middle">3</text>
  <line class="grid" x1="706.4" y1="120" x2="706.4" y2="370"/>
  <text class="tick" x="706.4" y="392" text-anchor="middle">4</text>
  <line class="grid" x1="911.2" y1="120" x2="911.2" y2="370"/>
  <text class="tick" x="911.2" y="392" text-anchor="middle">5</text>
  <line class="grid" x1="1116.0" y1="120" x2="1116.0" y2="370"/>
  <text class="tick" x="1116.0" y="392" text-anchor="middle">6</text>
  <polyline class="baseline" points="92.0,234.4 296.8,234.4 501.6,234.4 706.4,234.4 911.2,234.4 1116.0,234.4"/>
  <polyline fill="none" stroke="#6b4f2a" stroke-width="3.4" points="92.0,226.1 296.8,208.0 501.6,192.9 706.4,192.9 911.2,192.9 1116.0,177.5"/>
  <polyline fill="none" stroke="#2563eb" stroke-width="3.4" points="92.0,230.6 296.8,205.2 501.6,198.8 706.4,203.7 911.2,203.7 1116.0,202.9"/>
  <polyline fill="none" stroke="#7c3aed" stroke-width="3.4" points="92.0,271.1 296.8,204.8 501.6,204.5 706.4,177.7 911.2,175.6 1116.0,175.6"/>
  <polyline fill="none" stroke="#be185d" stroke-width="3.4" points="92.0,226.3 296.8,225.9 501.6,218.3 706.4,213.1 911.2,209.9 1116.0,208.9"/>
  <polyline fill="none" stroke="#0f766e" stroke-width="3.4" points="92.0,239.6 296.8,229.0 501.6,198.1 706.4,203.1 911.2,179.9 1116.0,179.6"/>
  <text class="panel" x="92" y="408">DINOv2 cosine to target</text>
  <line class="axis" x1="92" y1="426" x2="92" y2="676"/>
  <line class="axis" x1="92" y1="676" x2="1116" y2="676"/>
  <line class="grid" x1="92" y1="676.0" x2="1116" y2="676.0"/>
  <text class="tick" x="82" y="680.0" text-anchor="end">0.363</text>
  <line class="grid" x1="92" y1="613.5" x2="1116" y2="613.5"/>
  <text class="tick" x="82" y="617.5" text-anchor="end">0.441</text>
  <line class="grid" x1="92" y1="551.0" x2="1116" y2="551.0"/>
  <text class="tick" x="82" y="555.0" text-anchor="end">0.519</text>
  <line class="grid" x1="92" y1="488.5" x2="1116" y2="488.5"/>
  <text class="tick" x="82" y="492.5" text-anchor="end">0.597</text>
  <line class="grid" x1="92" y1="426.0" x2="1116" y2="426.0"/>
  <text class="tick" x="82" y="430.0" text-anchor="end">0.675</text>
  <line class="grid" x1="92.0" y1="426" x2="92.0" y2="676"/>
  <text class="tick" x="92.0" y="698" text-anchor="middle">1</text>
  <line class="grid" x1="296.8" y1="426" x2="296.8" y2="676"/>
  <text class="tick" x="296.8" y="698" text-anchor="middle">2</text>
  <line class="grid" x1="501.6" y1="426" x2="501.6" y2="676"/>
  <text class="tick" x="501.6" y="698" text-anchor="middle">3</text>
  <line class="grid" x1="706.4" y1="426" x2="706.4" y2="676"/>
  <text class="tick" x="706.4" y="698" text-anchor="middle">4</text>
  <line class="grid" x1="911.2" y1="426" x2="911.2" y2="676"/>
  <text class="tick" x="911.2" y="698" text-anchor="middle">5</text>
  <line class="grid" x1="1116.0" y1="426" x2="1116.0" y2="676"/>
  <text class="tick" x="1116.0" y="698" text-anchor="middle">6</text>
  <polyline class="baseline" points="92.0,609.4 296.8,609.4 501.6,609.4 706.4,609.4 911.2,609.4 1116.0,609.4"/>
  <polyline fill="none" stroke="#6b4f2a" stroke-width="3.4" points="92.0,494.8 296.8,506.4 501.6,501.7 706.4,514.7 911.2,496.1 1116.0,523.7"/>
  <polyline fill="none" stroke="#2563eb" stroke-width="3.4" points="92.0,512.3 296.8,473.4 501.6,488.3 706.4,488.3 911.2,486.1 1116.0,477.9"/>
  <polyline fill="none" stroke="#7c3aed" stroke-width="3.4" points="92.0,521.6 296.8,481.3 501.6,464.3 706.4,452.1 911.2,475.4 1116.0,477.1"/>
  <polyline fill="none" stroke="#be185d" stroke-width="3.4" points="92.0,495.2 296.8,483.7 501.6,552.3 706.4,553.8 911.2,508.2 1116.0,514.1"/>
  <polyline fill="none" stroke="#0f766e" stroke-width="3.4" points="92.0,506.6 296.8,508.9 501.6,519.3 706.4,513.3 911.2,498.2 1116.0,442.0"/>
  <line x1="820" y1="84" x2="852" y2="84" stroke="#6b4f2a" stroke-width="3.4"/>
  <text class="legend" x="862" y="89">baseline clip</text>
  <line x1="820" y1="108" x2="852" y2="108" stroke="#2563eb" stroke-width="3.4"/>
  <text class="legend" x="862" y="113">bt progress</text>
  <line x1="820" y1="132" x2="852" y2="132" stroke="#7c3aed" stroke-width="3.4"/>
  <text class="legend" x="862" y="137">qd sampler</text>
  <line x1="820" y1="156" x2="852" y2="156" stroke="#be185d" stroke-width="3.4"/>
  <text class="legend" x="862" y="161">pl listwise</text>
  <line x1="820" y1="180" x2="852" y2="180" stroke="#0f766e" stroke-width="3.4"/>
  <text class="legend" x="862" y="185">pareto listwise</text>
  <line x1="820" y1="212" x2="852" y2="212" class="baseline"/>
  <text class="legend" x="862" y="217">prompt-only baseline</text>
</svg>
