<svg xmlns="http://www.w3.org/2000/svg" width="1140" height="760" viewBox="0 0 1140 760">
<rect width="100%" height="100%" fill="#fbfaf6"/>
<text x="90" y="42" font-size="28" font-family="Georgia, serif" fill="#1f1b17">Sampler methods: target-recovery comparison</text>
<text x="90" y="66" font-size="16" font-family="Georgia, serif" fill="#4b3f34">Round-wise mean best similarity under CLIP and DINOv2 evaluation</text>
<text x="90" y="92" font-size="18" font-family="Georgia, serif" fill="#1f1b17">CLIP cosine to target</text>
<line x1="90" y1="110" x2="90" y2="345" stroke="#4b3f34" stroke-width="2"/>
<line x1="90" y1="345" x2="1080" y2="345" stroke="#4b3f34" stroke-width="2"/>
<line x1="90" y1="345.00" x2="1080" y2="345.00" stroke="#e3d7c8" stroke-width="1"/>
<text x="80" y="350.00" text-anchor="end" font-size="13" font-family="Georgia, serif" fill="#4b3f34">0.792</text>
<line x1="90" y1="286.25" x2="1080" y2="286.25" stroke="#e3d7c8" stroke-width="1"/>
<text x="80" y="291.25" text-anchor="end" font-size="13" font-family="Georgia, serif" fill="#4b3f34">0.819</text>
<line x1="90" y1="227.50" x2="1080" y2="227.50" stroke="#e3d7c8" stroke-width="1"/>
<text x="80" y="232.50" text-anchor="end" font-size="13" font-family="Georgia, serif" fill="#4b3f34">0.846</text>
<line x1="90" y1="168.75" x2="1080" y2="168.75" stroke="#e3d7c8" stroke-width="1"/>
<text x="80" y="173.75" text-anchor="end" font-size="13" font-family="Georgia, serif" fill="#4b3f34">0.874</text>
<line x1="90" y1="110.00" x2="1080" y2="110.00" stroke="#e3d7c8" stroke-width="1"/>
<text x="80" y="115.00" text-anchor="end" font-size="13" font-family="Georgia, serif" fill="#4b3f34">0.901</text>
<line x1="90.00" y1="110" x2="90.00" y2="345" stroke="#efe5d8" stroke-width="1"/>
<text x="90.00" y="367" text-anchor="middle" font-size="13" font-family="Georgia, serif" fill="#4b3f34">1</text>
<line x1="337.50" y1="110" x2="337.50" y2="345" stroke="#efe5d8" stroke-width="1"/>
<text x="337.50" y="367" text-anchor="middle" font-size="13" font-family="Georgia, serif" fill="#4b3f34">2</text>
<line x1="585.00" y1="110" x2="585.00" y2="345" stroke="#efe5d8" stroke-width="1"/>
<text x="585.00" y="367" text-anchor="middle" font-size="13" font-family="Georgia, serif" fill="#4b3f34">3</text>
<line x1="832.50" y1="110" x2="832.50" y2="345" stroke="#efe5d8" stroke-width="1"/>
<text x="832.50" y="367" text-anchor="middle" font-size="13" font-family="Georgia, serif" fill="#4b3f34">4</text>
<line x1="1080.00" y1="110" x2="1080.00" y2="345" stroke="#efe5d8" stroke-width="1"/>
<text x="1080.00" y="367" text-anchor="middle" font-size="13" font-family="Georgia, serif" fill="#4b3f34">5</text>
<line x1="90" y1="278.75" x2="1080" y2="278.75" stroke="#6b5e53" stroke-dasharray="8 6" stroke-width="2"/>
<polyline points="90.00,192.82 337.50,159.89 585.00,159.89 832.50,159.89 1080.00,159.89" fill="none" stroke="#8b4513" stroke-width="3.6" stroke-linecap="round" stroke-linejoin="round"/>
<circle cx="90.00" cy="192.82" r="4.5" fill="#8b4513" stroke="#fbfaf6" stroke-width="1.8"/>
<circle cx="337.50" cy="159.89" r="4.5" fill="#8b4513" stroke="#fbfaf6" stroke-width="1.8"/>
<circle cx="585.00" cy="159.89" r="4.5" fill="#8b4513" stroke="#fbfaf6" stroke-width="1.8"/>
<circle cx="832.50" cy="159.89" r="4.5" fill="#8b4513" stroke="#fbfaf6" stroke-width="1.8"/>
<circle cx="1080.00" cy="159.89" r="4.5" fill="#8b4513" stroke="#fbfaf6" stroke-width="1.8"/>
<polyline points="90.00,206.64 337.50,178.69 585.00,169.57 832.50,169.40 1080.00,161.50" fill="none" stroke="#1f6f8b" stroke-width="3.6" stroke-linecap="round" stroke-linejoin="round"/>
<circle cx="90.00" cy="206.64" r="4.5" fill="#1f6f8b" stroke="#fbfaf6" stroke-width="1.8"/>
<circle cx="337.50" cy="178.69" r="4.5" fill="#1f6f8b" stroke="#fbfaf6" stroke-width="1.8"/>
<circle cx="585.00" cy="169.57" r="4.5" fill="#1f6f8b" stroke="#fbfaf6" stroke-width="1.8"/>
<circle cx="832.50" cy="169.40" r="4.5" fill="#1f6f8b" stroke="#fbfaf6" stroke-width="1.8"/>
<circle cx="1080.00" cy="161.50" r="4.5" fill="#1f6f8b" stroke="#fbfaf6" stroke-width="1.8"/>
<polyline points="90.00,203.26 337.50,174.94 585.00,160.26 832.50,160.26 1080.00,160.26" fill="none" stroke="#2d6a4f" stroke-width="3.6" stroke-linecap="round" stroke-linejoin="round"/>
<circle cx="90.00" cy="203.26" r="4.5" fill="#2d6a4f" stroke="#fbfaf6" stroke-width="1.8"/>
<circle cx="337.50" cy="174.94" r="4.5" fill="#2d6a4f" stroke="#fbfaf6" stroke-width="1.8"/>
<circle cx="585.00" cy="160.26" r="4.5" fill="#2d6a4f" stroke="#fbfaf6" stroke-width="1.8"/>
<circle cx="832.50" cy="160.26" r="4.5" fill="#2d6a4f" stroke="#fbfaf6" stroke-width="1.8"/>
<circle cx="1080.00" cy="160.26" r="4.5" fill="#2d6a4f" stroke="#fbfaf6" stroke-width="1.8"/>
<polyline points="90.00,186.09 337.50,170.45 585.00,153.05 832.50,153.05 1080.00,153.05" fill="none" stroke="#7c3aed" stroke-width="3.6" stroke-linecap="round" stroke-linejoin="round"/>
<circle cx="90.00" cy="186.09" r="4.5" fill="#7c3aed" stroke="#fbfaf6" stroke-width="1.8"/>
<circle cx="337.50" cy="170.45" r="4.5" fill="#7c3aed" stroke="#fbfaf6" stroke-width="1.8"/>
<circle cx="585.00" cy="153.05" r="4.5" fill="#7c3aed" stroke="#fbfaf6" stroke-width="1.8"/>
<circle cx="832.50" cy="153.05" r="4.5" fill="#7c3aed" stroke="#fbfaf6" stroke-width="1.8"/>
<circle cx="1080.00" cy="153.05" r="4.5" fill="#7c3aed" stroke="#fbfaf6" stroke-width="1.8"/>
<text x="90" y="381" font-size="18" font-family="Georgia, serif" fill="#1f1b17">DINOv2 cosine to target</text>
<line x1="90" y1="399" x2="90" y2="634" stroke="#4b3f34" stroke-width="2"/>
<line x1="90" y1="634" x2="1080" y2="634" stroke="#4b3f34" stroke-width="2"/>
<line x1="90" y1="634.00" x2="1080" y2="634.00" stroke="#e3d7c8" stroke-width="1"/>
<text x="80" y="639.00" text-anchor="end" font-size="13" font-family="Georgia, serif" fill="#4b3f34">0.448</text>
<line x1="90" y1="575.25" x2="1080" y2="575.25" stroke="#e3d7c8" stroke-width="1"/>
<text x="80" y="580.25" text-anchor="end" font-size="13" font-family="Georgia, serif" fill="#4b3f34">0.508</text>
<line x1="90" y1="516.50" x2="1080" y2="516.50" stroke="#e3d7c8" stroke-width="1"/>
<text x="80" y="521.50" text-anchor="end" font-size="13" font-family="Georgia, serif" fill="#4b3f34">0.568</text>
<line x1="90" y1="457.75" x2="1080" y2="457.75" stroke="#e3d7c8" stroke-width="1"/>
<text x="80" y="462.75" text-anchor="end" font-size="13" font-family="Georgia, serif" fill="#4b3f34">0.628</text>
<line x1="90" y1="399.00" x2="1080" y2="399.00" stroke="#e3d7c8" stroke-width="1"/>
<text x="80" y="404.00" text-anchor="end" font-size="13" font-family="Georgia, serif" fill="#4b3f34">0.688</text>
<line x1="90.00" y1="399" x2="90.00" y2="634" stroke="#efe5d8" stroke-width="1"/>
<text x="90.00" y="656" text-anchor="middle" font-size="13" font-family="Georgia, serif" fill="#4b3f34">1</text>
<line x1="337.50" y1="399" x2="337.50" y2="634" stroke="#efe5d8" stroke-width="1"/>
<text x="337.50" y="656" text-anchor="middle" font-size="13" font-family="Georgia, serif" fill="#4b3f34">2</text>
<line x1="585.00" y1="399" x2="585.00" y2="634" stroke="#efe5d8" stroke-width="1"/>
<text x="585.00" y="656" text-anchor="middle" font-size="13" font-family="Georgia, serif" fill="#4b3f34">3</text>
<line x1="832.50" y1="399" x2="832.50" y2="634" stroke="#efe5d8" stroke-width="1"/>
<text x="832.50" y="656" text-anchor="middle" font-size="13" font-family="Georgia, serif" fill="#4b3f34">4</text>
<line x1="1080.00" y1="399" x2="1080.00" y2="634" stroke="#efe5d8" stroke-width="1"/>
<text x="1080.00" y="656" text-anchor="middle" font-size="13" font-family="Georgia, serif" fill="#4b3f34">5</text>
<line x1="90" y1="556.38" x2="1080" y2="556.38" stroke="#6b5e53" stroke-dasharray="8 6" stroke-width="2"/>
<polyline points="90.00,462.45 337.50,458.20 585.00,458.20 832.50,458.20 1080.00,458.20" fill="none" stroke="#8b4513" stroke-width="3.6" stroke-linecap="round" stroke-linejoin="round"/>
<circle cx="90.00" cy="462.45" r="4.5" fill="#8b4513" stroke="#fbfaf6" stroke-width="1.8"/>
<circle cx="337.50" cy="458.20" r="4.5" fill="#8b4513" stroke="#fbfaf6" stroke-width="1.8"/>
<circle cx="585.00" cy="458.20" r="4.5" fill="#8b4513" stroke="#fbfaf6" stroke-width="1.8"/>
<circle cx="832.50" cy="458.20" r="4.5" fill="#8b4513" stroke="#fbfaf6" stroke-width="1.8"/>
<circle cx="1080.00" cy="458.20" r="4.5" fill="#8b4513" stroke="#fbfaf6" stroke-width="1.8"/>
<polyline points="90.00,608.57 337.50,558.29 585.00,531.55 832.50,527.09 1080.00,489.53" fill="none" stroke="#1f6f8b" stroke-width="3.6" stroke-linecap="round" stroke-linejoin="round"/>
<circle cx="90.00" cy="608.57" r="4.5" fill="#1f6f8b" stroke="#fbfaf6" stroke-width="1.8"/>
<circle cx="337.50" cy="558.29" r="4.5" fill="#1f6f8b" stroke="#fbfaf6" stroke-width="1.8"/>
<circle cx="585.00" cy="531.55" r="4.5" fill="#1f6f8b" stroke="#fbfaf6" stroke-width="1.8"/>
<circle cx="832.50" cy="527.09" r="4.5" fill="#1f6f8b" stroke="#fbfaf6" stroke-width="1.8"/>
<circle cx="1080.00" cy="489.53" r="4.5" fill="#1f6f8b" stroke="#fbfaf6" stroke-width="1.8"/>
<polyline points="90.00,432.32 337.50,426.06 585.00,426.06 832.50,426.06 1080.00,426.06" fill="none" stroke="#2d6a4f" stroke-width="3.6" stroke-linecap="round" stroke-linejoin="round"/>
<circle cx="90.00" cy="432.32" r="4.5" fill="#2d6a4f" stroke="#fbfaf6" stroke-width="1.8"/>
<circle cx="337.50" cy="426.06" r="4.5" fill="#2d6a4f" stroke="#fbfaf6" stroke-width="1.8"/>
<circle cx="585.00" cy="426.06" r="4.5" fill="#2d6a4f" stroke="#fbfaf6" stroke-width="1.8"/>
<circle cx="832.50" cy="426.06" r="4.5" fill="#2d6a4f" stroke="#fbfaf6" stroke-width="1.8"/>
<circle cx="1080.00" cy="426.06" r="4.5" fill="#2d6a4f" stroke="#fbfaf6" stroke-width="1.8"/>
<polyline points="90.00,510.60 337.50,501.86 585.00,418.65 832.50,418.65 1080.00,418.65" fill="none" stroke="#7c3aed" stroke-width="3.6" stroke-linecap="round" stroke-linejoin="round"/>
<circle cx="90.00" cy="510.60" r="4.5" fill="#7c3aed" stroke="#fbfaf6" stroke-width="1.8"/>
<circle cx="337.50" cy="501.86" r="4.5" fill="#7c3aed" stroke="#fbfaf6" stroke-width="1.8"/>
<circle cx="585.00" cy="418.65" r="4.5" fill="#7c3aed" stroke="#fbfaf6" stroke-width="1.8"/>
<circle cx="832.50" cy="418.65" r="4.5" fill="#7c3aed" stroke="#fbfaf6" stroke-width="1.8"/>
<circle cx="1080.00" cy="418.65" r="4.5" fill="#7c3aed" stroke="#fbfaf6" stroke-width="1.8"/>
<rect x="850" y="84" width="214" height="122" rx="12" fill="#fffdfa" stroke="#d8cbb9"/>
<line x1="864" y1="108" x2="884" y2="108" stroke="#8b4513" stroke-width="4" stroke-linecap="round"/>
<text x="892" y="113" font-size="13" font-family="Georgia, serif" fill="#1f1b17">Annealed shell</text>
<line x1="864" y1="130" x2="884" y2="130" stroke="#1f6f8b" stroke-width="4" stroke-linecap="round"/>
<text x="892" y="135" font-size="13" font-family="Georgia, serif" fill="#1f1b17">Diversity shell</text>
<line x1="864" y1="152" x2="884" y2="152" stroke="#2d6a4f" stroke-width="4" stroke-linecap="round"/>
<text x="892" y="157" font-size="13" font-family="Georgia, serif" fill="#1f1b17">Line search</text>
<line x1="864" y1="174" x2="884" y2="174" stroke="#7c3aed" stroke-width="4" stroke-linecap="round"/>
<text x="892" y="179" font-size="13" font-family="Georgia, serif" fill="#1f1b17">Spherical cover</text>
</svg>