<svg xmlns="http://www.w3.org/2000/svg" width="1140" height="760" viewBox="0 0 1140 760">
<rect width="100%" height="100%" fill="#fbfaf6"/>
<text x="90" y="42" font-size="28" font-family="Georgia, serif" fill="#1f1b17">Oracle steering policies: target-recovery comparison</text>
<text x="90" y="66" font-size="16" font-family="Georgia, serif" fill="#4b3f34">Round-wise mean best similarity under CLIP and DINOv2 evaluation</text>
<text x="90" y="92" font-size="18" font-family="Georgia, serif" fill="#1f1b17">CLIP cosine to target</text>
<line x1="90" y1="110" x2="90" y2="345" stroke="#4b3f34" stroke-width="2"/>
<line x1="90" y1="345" x2="1080" y2="345" stroke="#4b3f34" stroke-width="2"/>
<line x1="90" y1="345.00" x2="1080" y2="345.00" stroke="#e3d7c8" stroke-width="1"/>
<text x="80" y="350.00" text-anchor="end" font-size="13" font-family="Georgia, serif" fill="#4b3f34">0.789</text>
<line x1="90" y1="286.25" x2="1080" y2="286.25" stroke="#e3d7c8" stroke-width="1"/>
<text x="80" y="291.25" text-anchor="end" font-size="13" font-family="Georgia, serif" fill="#4b3f34">0.817</text>
<line x1="90" y1="227.50" x2="1080" y2="227.50" stroke="#e3d7c8" stroke-width="1"/>
<text x="80" y="232.50" text-anchor="end" font-size="13" font-family="Georgia, serif" fill="#4b3f34">0.846</text>
<line x1="90" y1="168.75" x2="1080" y2="168.75" stroke="#e3d7c8" stroke-width="1"/>
<text x="80" y="173.75" text-anchor="end" font-size="13" font-family="Georgia, serif" fill="#4b3f34">0.874</text>
<line x1="90" y1="110.00" x2="1080" y2="110.00" stroke="#e3d7c8" stroke-width="1"/>
<text x="80" y="115.00" text-anchor="end" font-size="13" font-family="Georgia, serif" fill="#4b3f34">0.903</text>
<line x1="90.00" y1="110" x2="90.00" y2="345" stroke="#efe5d8" stroke-width="1"/>
<text x="90.00" y="367" text-anchor="middle" font-size="13" font-family="Georgia, serif" fill="#4b3f34">1</text>
<line x1="337.50" y1="110" x2="337.50" y2="345" stroke="#efe5d8" stroke-width="1"/>
<text x="337.50" y="367" text-anchor="middle" font-size="13" font-family="Georgia, serif" fill="#4b3f34">2</text>
<line x1="585.00" y1="110" x2="585.00" y2="345" stroke="#efe5d8" stroke-width="1"/>
<text x="585.00" y="367" text-anchor="middle" font-size="13" font-family="Georgia, serif" fill="#4b3f34">3</text>
<line x1="832.50" y1="110" x2="832.50" y2="345" stroke="#efe5d8" stroke-width="1"/>
<text x="832.50" y="367" text-anchor="middle" font-size="13" font-family="Georgia, serif" fill="#4b3f34">4</text>
<line x1="1080.00" y1="110" x2="1080.00" y2="345" stroke="#efe5d8" stroke-width="1"/>
<text x="1080.00" y="367" text-anchor="middle" font-size="13" font-family="Georgia, serif" fill="#4b3f34">5</text>
<line x1="90" y1="283.53" x2="1080" y2="283.53" stroke="#6b5e53" stroke-dasharray="8 6" stroke-width="2"/>
<polyline points="90.00,205.75 337.50,204.25 585.00,181.41 832.50,181.41 1080.00,169.61" fill="none" stroke="#8b4513" stroke-width="3.6" stroke-linecap="round" stroke-linejoin="round"/>
<circle cx="90.00" cy="205.75" r="4.5" fill="#8b4513" stroke="#fbfaf6" stroke-width="1.8"/>
<circle cx="337.50" cy="204.25" r="4.5" fill="#8b4513" stroke="#fbfaf6" stroke-width="1.8"/>
<circle cx="585.00" cy="181.41" r="4.5" fill="#8b4513" stroke="#fbfaf6" stroke-width="1.8"/>
<circle cx="832.50" cy="181.41" r="4.5" fill="#8b4513" stroke="#fbfaf6" stroke-width="1.8"/>
<circle cx="1080.00" cy="169.61" r="4.5" fill="#8b4513" stroke="#fbfaf6" stroke-width="1.8"/>
<polyline points="90.00,201.57 337.50,179.45 585.00,179.45 832.50,157.55 1080.00,151.25" fill="none" stroke="#1f6f8b" stroke-width="3.6" stroke-linecap="round" stroke-linejoin="round"/>
<circle cx="90.00" cy="201.57" r="4.5" fill="#1f6f8b" stroke="#fbfaf6" stroke-width="1.8"/>
<circle cx="337.50" cy="179.45" r="4.5" fill="#1f6f8b" stroke="#fbfaf6" stroke-width="1.8"/>
<circle cx="585.00" cy="179.45" r="4.5" fill="#1f6f8b" stroke="#fbfaf6" stroke-width="1.8"/>
<circle cx="832.50" cy="157.55" r="4.5" fill="#1f6f8b" stroke="#fbfaf6" stroke-width="1.8"/>
<circle cx="1080.00" cy="151.25" r="4.5" fill="#1f6f8b" stroke="#fbfaf6" stroke-width="1.8"/>
<polyline points="90.00,202.14 337.50,189.22 585.00,173.18 832.50,163.73 1080.00,163.73" fill="none" stroke="#2d6a4f" stroke-width="3.6" stroke-linecap="round" stroke-linejoin="round"/>
<circle cx="90.00" cy="202.14" r="4.5" fill="#2d6a4f" stroke="#fbfaf6" stroke-width="1.8"/>
<circle cx="337.50" cy="189.22" r="4.5" fill="#2d6a4f" stroke="#fbfaf6" stroke-width="1.8"/>
<circle cx="585.00" cy="173.18" r="4.5" fill="#2d6a4f" stroke="#fbfaf6" stroke-width="1.8"/>
<circle cx="832.50" cy="163.73" r="4.5" fill="#2d6a4f" stroke="#fbfaf6" stroke-width="1.8"/>
<circle cx="1080.00" cy="163.73" r="4.5" fill="#2d6a4f" stroke="#fbfaf6" stroke-width="1.8"/>
<text x="90" y="381" font-size="18" font-family="Georgia, serif" fill="#1f1b17">DINOv2 cosine to target</text>
<line x1="90" y1="399" x2="90" y2="634" stroke="#4b3f34" stroke-width="2"/>
<line x1="90" y1="634" x2="1080" y2="634" stroke="#4b3f34" stroke-width="2"/>
<line x1="90" y1="634.00" x2="1080" y2="634.00" stroke="#e3d7c8" stroke-width="1"/>
<text x="80" y="639.00" text-anchor="end" font-size="13" font-family="Georgia, serif" fill="#4b3f34">0.410</text>
<line x1="90" y1="575.25" x2="1080" y2="575.25" stroke="#e3d7c8" stroke-width="1"/>
<text x="80" y="580.25" text-anchor="end" font-size="13" font-family="Georgia, serif" fill="#4b3f34">0.487</text>
<line x1="90" y1="516.50" x2="1080" y2="516.50" stroke="#e3d7c8" stroke-width="1"/>
<text x="80" y="521.50" text-anchor="end" font-size="13" font-family="Georgia, serif" fill="#4b3f34">0.564</text>
<line x1="90" y1="457.75" x2="1080" y2="457.75" stroke="#e3d7c8" stroke-width="1"/>
<text x="80" y="462.75" text-anchor="end" font-size="13" font-family="Georgia, serif" fill="#4b3f34">0.641</text>
<line x1="90" y1="399.00" x2="1080" y2="399.00" stroke="#e3d7c8" stroke-width="1"/>
<text x="80" y="404.00" text-anchor="end" font-size="13" font-family="Georgia, serif" fill="#4b3f34">0.717</text>
<line x1="90.00" y1="399" x2="90.00" y2="634" stroke="#efe5d8" stroke-width="1"/>
<text x="90.00" y="656" text-anchor="middle" font-size="13" font-family="Georgia, serif" fill="#4b3f34">1</text>
<line x1="337.50" y1="399" x2="337.50" y2="634" stroke="#efe5d8" stroke-width="1"/>
<text x="337.50" y="656" text-anchor="middle" font-size="13" font-family="Georgia, serif" fill="#4b3f34">2</text>
<line x1="585.00" y1="399" x2="585.00" y2="634" stroke="#efe5d8" stroke-width="1"/>
<text x="585.00" y="656" text-anchor="middle" font-size="13" font-family="Georgia, serif" fill="#4b3f34">3</text>
<line x1="832.50" y1="399" x2="832.50" y2="634" stroke="#efe5d8" stroke-width="1"/>
<text x="832.50" y="656" text-anchor="middle" font-size="13" font-family="Georgia, serif" fill="#4b3f34">4</text>
<line x1="1080.00" y1="399" x2="1080.00" y2="634" stroke="#efe5d8" stroke-width="1"/>
<text x="1080.00" y="656" text-anchor="middle" font-size="13" font-family="Georgia, serif" fill="#4b3f34">5</text>
<line x1="90" y1="575.70" x2="1080" y2="575.70" stroke="#6b5e53" stroke-dasharray="8 6" stroke-width="2"/>
<polyline points="90.00,519.69 337.50,424.49 585.00,424.49 832.50,418.96 1080.00,414.30" fill="none" stroke="#8b4513" stroke-width="3.6" stroke-linecap="round" stroke-linejoin="round"/>
<circle cx="90.00" cy="519.69" r="4.5" fill="#8b4513" stroke="#fbfaf6" stroke-width="1.8"/>
<circle cx="337.50" cy="424.49" r="4.5" fill="#8b4513" stroke="#fbfaf6" stroke-width="1.8"/>
<circle cx="585.00" cy="424.49" r="4.5" fill="#8b4513" stroke="#fbfaf6" stroke-width="1.8"/>
<circle cx="832.50" cy="418.96" r="4.5" fill="#8b4513" stroke="#fbfaf6" stroke-width="1.8"/>
<circle cx="1080.00" cy="414.30" r="4.5" fill="#8b4513" stroke="#fbfaf6" stroke-width="1.8"/>
<polyline points="90.00,459.66 337.50,446.59 585.00,442.61 832.50,434.85 1080.00,434.85" fill="none" stroke="#1f6f8b" stroke-width="3.6" stroke-linecap="round" stroke-linejoin="round"/>
<circle cx="90.00" cy="459.66" r="4.5" fill="#1f6f8b" stroke="#fbfaf6" stroke-width="1.8"/>
<circle cx="337.50" cy="446.59" r="4.5" fill="#1f6f8b" stroke="#fbfaf6" stroke-width="1.8"/>
<circle cx="585.00" cy="442.61" r="4.5" fill="#1f6f8b" stroke="#fbfaf6" stroke-width="1.8"/>
<circle cx="832.50" cy="434.85" r="4.5" fill="#1f6f8b" stroke="#fbfaf6" stroke-width="1.8"/>
<circle cx="1080.00" cy="434.85" r="4.5" fill="#1f6f8b" stroke="#fbfaf6" stroke-width="1.8"/>
<polyline points="90.00,443.80 337.50,443.80 585.00,443.80 832.50,443.80 1080.00,443.80" fill="none" stroke="#2d6a4f" stroke-width="3.6" stroke-linecap="round" stroke-linejoin="round"/>
<circle cx="90.00" cy="443.80" r="4.5" fill="#2d6a4f" stroke="#fbfaf6" stroke-width="1.8"/>
<circle cx="337.50" cy="443.80" r="4.5" fill="#2d6a4f" stroke="#fbfaf6" stroke-width="1.8"/>
<circle cx="585.00" cy="443.80" r="4.5" fill="#2d6a4f" stroke="#fbfaf6" stroke-width="1.8"/>
<circle cx="832.50" cy="443.80" r="4.5" fill="#2d6a4f" stroke="#fbfaf6" stroke-width="1.8"/>
<circle cx="1080.00" cy="443.80" r="4.5" fill="#2d6a4f" stroke="#fbfaf6" stroke-width="1.8"/>
<rect x="850" y="84" width="214" height="100" rx="12" fill="#fffdfa" stroke="#d8cbb9"/>
<line x1="864" y1="108" x2="884" y2="108" stroke="#8b4513" stroke-width="4" stroke-linecap="round"/>
<text x="892" y="113" font-size="13" font-family="Georgia, serif" fill="#1f1b17">CLIP + DINO ensemble</text>
<line x1="864" y1="130" x2="884" y2="130" stroke="#1f6f8b" stroke-width="4" stroke-linecap="round"/>
<text x="892" y="135" font-size="13" font-family="Georgia, serif" fill="#1f1b17">CLIP + novelty bonus</text>
<line x1="864" y1="152" x2="884" y2="152" stroke="#2d6a4f" stroke-width="4" stroke-linecap="round"/>
<text x="892" y="157" font-size="13" font-family="Georgia, serif" fill="#1f1b17">CLIP oracle</text>
</svg>