<svg xmlns="http://www.w3.org/2000/svg" width="1140" height="760" viewBox="0 0 1140 760">
<rect width="100%" height="100%" fill="#fbfaf6"/>
<text x="90" y="42" font-size="28" font-family="Georgia, serif" fill="#1f1b17">Steering-mode comparison: hidden-target recovery</text>
<text x="90" y="66" font-size="16" font-family="Georgia, serif" fill="#4b3f34">Round-wise mean best similarity under CLIP and DINOv2 evaluation</text>
<text x="90" y="92" font-size="18" font-family="Georgia, serif" fill="#1f1b17">CLIP cosine to target</text>
<line x1="90" y1="110" x2="90" y2="345" stroke="#4b3f34" stroke-width="2"/>
<line x1="90" y1="345" x2="1080" y2="345" stroke="#4b3f34" stroke-width="2"/>
<line x1="90" y1="345.00" x2="1080" y2="345.00" stroke="#e3d7c8" stroke-width="1"/>
<text x="80" y="350.00" text-anchor="end" font-size="13" font-family="Georgia, serif" fill="#4b3f34">0.733</text>
<line x1="90" y1="286.25" x2="1080" y2="286.25" stroke="#e3d7c8" stroke-width="1"/>
<text x="80" y="291.25" text-anchor="end" font-size="13" font-family="Georgia, serif" fill="#4b3f34">0.768</text>
<line x1="90" y1="227.50" x2="1080" y2="227.50" stroke="#e3d7c8" stroke-width="1"/>
<text x="80" y="232.50" text-anchor="end" font-size="13" font-family="Georgia, serif" fill="#4b3f34">0.803</text>
<line x1="90" y1="168.75" x2="1080" y2="168.75" stroke="#e3d7c8" stroke-width="1"/>
<text x="80" y="173.75" text-anchor="end" font-size="13" font-family="Georgia, serif" fill="#4b3f34">0.839</text>
<line x1="90" y1="110.00" x2="1080" y2="110.00" stroke="#e3d7c8" stroke-width="1"/>
<text x="80" y="115.00" text-anchor="end" font-size="13" font-family="Georgia, serif" fill="#4b3f34">0.874</text>
<line x1="90.00" y1="110" x2="90.00" y2="345" stroke="#efe5d8" stroke-width="1"/>
<text x="90.00" y="367" text-anchor="middle" font-size="13" font-family="Georgia, serif" fill="#4b3f34">1</text>
<line x1="337.50" y1="110" x2="337.50" y2="345" stroke="#efe5d8" stroke-width="1"/>
<text x="337.50" y="367" text-anchor="middle" font-size="13" font-family="Georgia, serif" fill="#4b3f34">2</text>
<line x1="585.00" y1="110" x2="585.00" y2="345" stroke="#efe5d8" stroke-width="1"/>
<text x="585.00" y="367" text-anchor="middle" font-size="13" font-family="Georgia, serif" fill="#4b3f34">3</text>
<line x1="832.50" y1="110" x2="832.50" y2="345" stroke="#efe5d8" stroke-width="1"/>
<text x="832.50" y="367" text-anchor="middle" font-size="13" font-family="Georgia, serif" fill="#4b3f34">4</text>
<line x1="1080.00" y1="110" x2="1080.00" y2="345" stroke="#efe5d8" stroke-width="1"/>
<text x="1080.00" y="367" text-anchor="middle" font-size="13" font-family="Georgia, serif" fill="#4b3f34">5</text>
<line x1="90" y1="263.33" x2="1080" y2="263.33" stroke="#6b5e53" stroke-dasharray="8 6" stroke-width="2"/>
<polyline points="90.00,184.58 337.50,184.58 585.00,184.58 832.50,168.65 1080.00,168.65" fill="none" stroke="#8b4513" stroke-width="3.6" stroke-linecap="round" stroke-linejoin="round"/>
<circle cx="90.00" cy="184.58" r="4.5" fill="#8b4513" stroke="#fbfaf6" stroke-width="1.8"/>
<circle cx="337.50" cy="184.58" r="4.5" fill="#8b4513" stroke="#fbfaf6" stroke-width="1.8"/>
<circle cx="585.00" cy="184.58" r="4.5" fill="#8b4513" stroke="#fbfaf6" stroke-width="1.8"/>
<circle cx="832.50" cy="168.65" r="4.5" fill="#8b4513" stroke="#fbfaf6" stroke-width="1.8"/>
<circle cx="1080.00" cy="168.65" r="4.5" fill="#8b4513" stroke="#fbfaf6" stroke-width="1.8"/>
<polyline points="90.00,143.19 337.50,143.19 585.00,143.19 832.50,143.19 1080.00,143.19" fill="none" stroke="#1f6f8b" stroke-width="3.6" stroke-linecap="round" stroke-linejoin="round"/>
<circle cx="90.00" cy="143.19" r="4.5" fill="#1f6f8b" stroke="#fbfaf6" stroke-width="1.8"/>
<circle cx="337.50" cy="143.19" r="4.5" fill="#1f6f8b" stroke="#fbfaf6" stroke-width="1.8"/>
<circle cx="585.00" cy="143.19" r="4.5" fill="#1f6f8b" stroke="#fbfaf6" stroke-width="1.8"/>
<circle cx="832.50" cy="143.19" r="4.5" fill="#1f6f8b" stroke="#fbfaf6" stroke-width="1.8"/>
<circle cx="1080.00" cy="143.19" r="4.5" fill="#1f6f8b" stroke="#fbfaf6" stroke-width="1.8"/>
<polyline points="90.00,252.19 337.50,226.91 585.00,188.23 832.50,188.23 1080.00,188.23" fill="none" stroke="#2d6a4f" stroke-width="3.6" stroke-linecap="round" stroke-linejoin="round"/>
<circle cx="90.00" cy="252.19" r="4.5" fill="#2d6a4f" stroke="#fbfaf6" stroke-width="1.8"/>
<circle cx="337.50" cy="226.91" r="4.5" fill="#2d6a4f" stroke="#fbfaf6" stroke-width="1.8"/>
<circle cx="585.00" cy="188.23" r="4.5" fill="#2d6a4f" stroke="#fbfaf6" stroke-width="1.8"/>
<circle cx="832.50" cy="188.23" r="4.5" fill="#2d6a4f" stroke="#fbfaf6" stroke-width="1.8"/>
<circle cx="1080.00" cy="188.23" r="4.5" fill="#2d6a4f" stroke="#fbfaf6" stroke-width="1.8"/>
<text x="90" y="381" font-size="18" font-family="Georgia, serif" fill="#1f1b17">DINOv2 cosine to target</text>
<line x1="90" y1="399" x2="90" y2="634" stroke="#4b3f34" stroke-width="2"/>
<line x1="90" y1="634" x2="1080" y2="634" stroke="#4b3f34" stroke-width="2"/>
<line x1="90" y1="634.00" x2="1080" y2="634.00" stroke="#e3d7c8" stroke-width="1"/>
<text x="80" y="639.00" text-anchor="end" font-size="13" font-family="Georgia, serif" fill="#4b3f34">0.127</text>
<line x1="90" y1="575.25" x2="1080" y2="575.25" stroke="#e3d7c8" stroke-width="1"/>
<text x="80" y="580.25" text-anchor="end" font-size="13" font-family="Georgia, serif" fill="#4b3f34">0.243</text>
<line x1="90" y1="516.50" x2="1080" y2="516.50" stroke="#e3d7c8" stroke-width="1"/>
<text x="80" y="521.50" text-anchor="end" font-size="13" font-family="Georgia, serif" fill="#4b3f34">0.360</text>
<line x1="90" y1="457.75" x2="1080" y2="457.75" stroke="#e3d7c8" stroke-width="1"/>
<text x="80" y="462.75" text-anchor="end" font-size="13" font-family="Georgia, serif" fill="#4b3f34">0.476</text>
<line x1="90" y1="399.00" x2="1080" y2="399.00" stroke="#e3d7c8" stroke-width="1"/>
<text x="80" y="404.00" text-anchor="end" font-size="13" font-family="Georgia, serif" fill="#4b3f34">0.593</text>
<line x1="90.00" y1="399" x2="90.00" y2="634" stroke="#efe5d8" stroke-width="1"/>
<text x="90.00" y="656" text-anchor="middle" font-size="13" font-family="Georgia, serif" fill="#4b3f34">1</text>
<line x1="337.50" y1="399" x2="337.50" y2="634" stroke="#efe5d8" stroke-width="1"/>
<text x="337.50" y="656" text-anchor="middle" font-size="13" font-family="Georgia, serif" fill="#4b3f34">2</text>
<line x1="585.00" y1="399" x2="585.00" y2="634" stroke="#efe5d8" stroke-width="1"/>
<text x="585.00" y="656" text-anchor="middle" font-size="13" font-family="Georgia, serif" fill="#4b3f34">3</text>
<line x1="832.50" y1="399" x2="832.50" y2="634" stroke="#efe5d8" stroke-width="1"/>
<text x="832.50" y="656" text-anchor="middle" font-size="13" font-family="Georgia, serif" fill="#4b3f34">4</text>
<line x1="1080.00" y1="399" x2="1080.00" y2="634" stroke="#efe5d8" stroke-width="1"/>
<text x="1080.00" y="656" text-anchor="middle" font-size="13" font-family="Georgia, serif" fill="#4b3f34">5</text>
<line x1="90" y1="555.86" x2="1080" y2="555.86" stroke="#6b5e53" stroke-dasharray="8 6" stroke-width="2"/>
<polyline points="90.00,465.93 337.50,465.93 585.00,465.93 832.50,445.09 1080.00,445.09" fill="none" stroke="#8b4513" stroke-width="3.6" stroke-linecap="round" stroke-linejoin="round"/>
<circle cx="90.00" cy="465.93" r="4.5" fill="#8b4513" stroke="#fbfaf6" stroke-width="1.8"/>
<circle cx="337.50" cy="465.93" r="4.5" fill="#8b4513" stroke="#fbfaf6" stroke-width="1.8"/>
<circle cx="585.00" cy="465.93" r="4.5" fill="#8b4513" stroke="#fbfaf6" stroke-width="1.8"/>
<circle cx="832.50" cy="445.09" r="4.5" fill="#8b4513" stroke="#fbfaf6" stroke-width="1.8"/>
<circle cx="1080.00" cy="445.09" r="4.5" fill="#8b4513" stroke="#fbfaf6" stroke-width="1.8"/>
<polyline points="90.00,467.72 337.50,467.72 585.00,467.72 832.50,467.72 1080.00,467.72" fill="none" stroke="#1f6f8b" stroke-width="3.6" stroke-linecap="round" stroke-linejoin="round"/>
<circle cx="90.00" cy="467.72" r="4.5" fill="#1f6f8b" stroke="#fbfaf6" stroke-width="1.8"/>
<circle cx="337.50" cy="467.72" r="4.5" fill="#1f6f8b" stroke="#fbfaf6" stroke-width="1.8"/>
<circle cx="585.00" cy="467.72" r="4.5" fill="#1f6f8b" stroke="#fbfaf6" stroke-width="1.8"/>
<circle cx="832.50" cy="467.72" r="4.5" fill="#1f6f8b" stroke="#fbfaf6" stroke-width="1.8"/>
<circle cx="1080.00" cy="467.72" r="4.5" fill="#1f6f8b" stroke="#fbfaf6" stroke-width="1.8"/>
<polyline points="90.00,504.02 337.50,479.03 585.00,479.03 832.50,409.09 1080.00,409.09" fill="none" stroke="#2d6a4f" stroke-width="3.6" stroke-linecap="round" stroke-linejoin="round"/>
<circle cx="90.00" cy="504.02" r="4.5" fill="#2d6a4f" stroke="#fbfaf6" stroke-width="1.8"/>
<circle cx="337.50" cy="479.03" r="4.5" fill="#2d6a4f" stroke="#fbfaf6" stroke-width="1.8"/>
<circle cx="585.00" cy="479.03" r="4.5" fill="#2d6a4f" stroke="#fbfaf6" stroke-width="1.8"/>
<circle cx="832.50" cy="409.09" r="4.5" fill="#2d6a4f" stroke="#fbfaf6" stroke-width="1.8"/>
<circle cx="1080.00" cy="409.09" r="4.5" fill="#2d6a4f" stroke="#fbfaf6" stroke-width="1.8"/>
<rect x="850" y="84" width="214" height="100" rx="12" fill="#fffdfa" stroke="#d8cbb9"/>
<line x1="864" y1="108" x2="884" y2="108" stroke="#8b4513" stroke-width="4" stroke-linecap="round"/>
<text x="892" y="113" font-size="13" font-family="Georgia, serif" fill="#1f1b17">Content-masked offset</text>
<line x1="864" y1="130" x2="884" y2="130" stroke="#1f6f8b" stroke-width="4" stroke-linecap="round"/>
<text x="892" y="135" font-size="13" font-family="Georgia, serif" fill="#1f1b17">Shared-token offset</text>
<line x1="864" y1="152" x2="884" y2="152" stroke="#2d6a4f" stroke-width="4" stroke-linecap="round"/>
<text x="892" y="157" font-size="13" font-family="Georgia, serif" fill="#1f1b17">Token-factorized offset</text>
</svg>