<svg xmlns="http://www.w3.org/2000/svg" width="1120" height="760" viewBox="0 0 1120 760" role="img" aria-labelledby="title desc">
  <title id="title">Repeated-seed multi-metric oracle study</title>
  <desc id="desc">Top panel shows CLIP convergence, bottom panel shows DINOv2 convergence, both aggregated across repeated seeds.</desc>
  <style>
    .bg { fill: #fbfaf6; }
    .axis { stroke: #475467; stroke-width: 2.1; }
    .grid { stroke: #d9cfbf; stroke-width: 1.1; }
    .clip { fill: none; stroke: #8b4513; stroke-width: 3.8; }
    .clipBase { fill: none; stroke: #8b4513; stroke-width: 2.2; stroke-dasharray: 10 7; opacity: 0.65; }
    .dino { fill: none; stroke: #1f6f8b; stroke-width: 3.8; }
    .dinoBase { fill: none; stroke: #1f6f8b; stroke-width: 2.2; stroke-dasharray: 10 7; opacity: 0.65; }
    .title { font: 700 28px Georgia, 'Times New Roman', serif; fill: #1f2937; }
    .subtitle { font: 16px Georgia, 'Times New Roman', serif; fill: #334155; }
    .tick { font: 14px Georgia, 'Times New Roman', serif; fill: #334155; }
    .panel { font: 700 18px Georgia, 'Times New Roman', serif; fill: #1f2937; }
  </style>
  <rect class="bg" width="1120" height="760"/>
  <text class="title" x="70" y="44">Repeated-Seed Multi-Metric Oracle Study</text>
  <text class="subtitle" x="70" y="70">Mean best-candidate similarity over rounds with three repeats per target.</text>
  <text class="panel" x="84" y="92">CLIP cosine to target</text>
  <line class="axis" x1="84" y1="110" x2="84" y2="360"/>
  <line class="axis" x1="84" y1="360" x2="1060" y2="360"/>
  <line class="grid" x1="84" y1="360.0" x2="1060" y2="360.0"/>
  <text class="tick" x="74" y="364.0" text-anchor="end">0.815</text>
  <line class="grid" x1="84" y1="297.5" x2="1060" y2="297.5"/>
  <text class="tick" x="74" y="301.5" text-anchor="end">0.838</text>
  <line class="grid" x1="84" y1="235.0" x2="1060" y2="235.0"/>
  <text class="tick" x="74" y="239.0" text-anchor="end">0.861</text>
  <line class="grid" x1="84" y1="172.5" x2="1060" y2="172.5"/>
  <text class="tick" x="74" y="176.5" text-anchor="end">0.883</text>
  <line class="grid" x1="84" y1="110.0" x2="1060" y2="110.0"/>
  <text class="tick" x="74" y="114.0" text-anchor="end">0.906</text>
  <line class="grid" x1="84.0" y1="110" x2="84.0" y2="360"/>
  <text class="tick" x="84.0" y="382" text-anchor="middle">1</text>
  <line class="grid" x1="192.4" y1="110" x2="192.4" y2="360"/>
  <text class="tick" x="192.4" y="382" text-anchor="middle">2</text>
  <line class="grid" x1="300.9" y1="110" x2="300.9" y2="360"/>
  <text class="tick" x="300.9" y="382" text-anchor="middle">3</text>
  <line class="grid" x1="409.3" y1="110" x2="409.3" y2="360"/>
  <text class="tick" x="409.3" y="382" text-anchor="middle">4</text>
  <line class="grid" x1="517.8" y1="110" x2="517.8" y2="360"/>
  <text class="tick" x="517.8" y="382" text-anchor="middle">5</text>
  <line class="grid" x1="626.2" y1="110" x2="626.2" y2="360"/>
  <text class="tick" x="626.2" y="382" text-anchor="middle">6</text>
  <line class="grid" x1="734.7" y1="110" x2="734.7" y2="360"/>
  <text class="tick" x="734.7" y="382" text-anchor="middle">7</text>
  <line class="grid" x1="843.1" y1="110" x2="843.1" y2="360"/>
  <text class="tick" x="843.1" y="382" text-anchor="middle">8</text>
  <line class="grid" x1="951.6" y1="110" x2="951.6" y2="360"/>
  <text class="tick" x="951.6" y="382" text-anchor="middle">9</text>
  <line class="grid" x1="1060.0" y1="110" x2="1060.0" y2="360"/>
  <text class="tick" x="1060.0" y="382" text-anchor="middle">10</text>
  <polyline class="clipBase" points="84.0,305.1 192.4,305.1 300.9,305.1 409.3,305.1 517.8,305.1 626.2,305.1 734.7,305.1 843.1,305.1 951.6,305.1 1060.0,305.1"/>
  <polyline class="clip" points="84.0,232.8 192.4,209.9 300.9,205.3 409.3,189.2 517.8,187.9 626.2,185.2 734.7,173.8 843.1,165.3 951.6,165.3 1060.0,164.9"/>
  <text class="panel" x="84" y="390">DINOv2 cosine to target</text>
  <line class="axis" x1="84" y1="408" x2="84" y2="658"/>
  <line class="axis" x1="84" y1="658" x2="1060" y2="658"/>
  <line class="grid" x1="84" y1="658.0" x2="1060" y2="658.0"/>
  <text class="tick" x="74" y="662.0" text-anchor="end">0.414</text>
  <line class="grid" x1="84" y1="595.5" x2="1060" y2="595.5"/>
  <text class="tick" x="74" y="599.5" text-anchor="end">0.468</text>
  <line class="grid" x1="84" y1="533.0" x2="1060" y2="533.0"/>
  <text class="tick" x="74" y="537.0" text-anchor="end">0.521</text>
  <line class="grid" x1="84" y1="470.5" x2="1060" y2="470.5"/>
  <text class="tick" x="74" y="474.5" text-anchor="end">0.575</text>
  <line class="grid" x1="84" y1="408.0" x2="1060" y2="408.0"/>
  <text class="tick" x="74" y="412.0" text-anchor="end">0.628</text>
  <line class="grid" x1="84.0" y1="408" x2="84.0" y2="658"/>
  <text class="tick" x="84.0" y="680" text-anchor="middle">1</text>
  <line class="grid" x1="192.4" y1="408" x2="192.4" y2="658"/>
  <text class="tick" x="192.4" y="680" text-anchor="middle">2</text>
  <line class="grid" x1="300.9" y1="408" x2="300.9" y2="658"/>
  <text class="tick" x="300.9" y="680" text-anchor="middle">3</text>
  <line class="grid" x1="409.3" y1="408" x2="409.3" y2="658"/>
  <text class="tick" x="409.3" y="680" text-anchor="middle">4</text>
  <line class="grid" x1="517.8" y1="408" x2="517.8" y2="658"/>
  <text class="tick" x="517.8" y="680" text-anchor="middle">5</text>
  <line class="grid" x1="626.2" y1="408" x2="626.2" y2="658"/>
  <text class="tick" x="626.2" y="680" text-anchor="middle">6</text>
  <line class="grid" x1="734.7" y1="408" x2="734.7" y2="658"/>
  <text class="tick" x="734.7" y="680" text-anchor="middle">7</text>
  <line class="grid" x1="843.1" y1="408" x2="843.1" y2="658"/>
  <text class="tick" x="843.1" y="680" text-anchor="middle">8</text>
  <line class="grid" x1="951.6" y1="408" x2="951.6" y2="658"/>
  <text class="tick" x="951.6" y="680" text-anchor="middle">9</text>
  <line class="grid" x1="1060.0" y1="408" x2="1060.0" y2="658"/>
  <text class="tick" x="1060.0" y="680" text-anchor="middle">10</text>
  <polyline class="dinoBase" points="84.0,634.6 192.4,634.6 300.9,634.6 409.3,634.6 517.8,634.6 626.2,634.6 734.7,634.6 843.1,634.6 951.6,634.6 1060.0,634.6"/>
  <polyline class="dino" points="84.0,446.4 192.4,445.5 300.9,431.4 409.3,445.4 517.8,499.1 626.2,437.8 734.7,471.9 843.1,459.6 951.6,448.2 1060.0,494.1"/>
</svg>
