<svg xmlns="http://www.w3.org/2000/svg" width="1140" height="760" viewBox="0 0 1140 760">
<rect width="100%" height="100%" fill="#fbfaf6"/>
<text x="90" y="42" font-size="28" font-family="Georgia, serif" fill="#1f1b17">Preference models: target-recovery comparison</text>
<text x="90" y="66" font-size="16" font-family="Georgia, serif" fill="#4b3f34">Round-wise mean best similarity under CLIP and DINOv2 evaluation</text>
<text x="90" y="92" font-size="18" font-family="Georgia, serif" fill="#1f1b17">CLIP cosine to target</text>
<line x1="90" y1="110" x2="90" y2="345" stroke="#4b3f34" stroke-width="2"/>
<line x1="90" y1="345" x2="1080" y2="345" stroke="#4b3f34" stroke-width="2"/>
<line x1="90" y1="345.00" x2="1080" y2="345.00" stroke="#e3d7c8" stroke-width="1"/>
<text x="80" y="350.00" text-anchor="end" font-size="13" font-family="Georgia, serif" fill="#4b3f34">0.778</text>
<line x1="90" y1="286.25" x2="1080" y2="286.25" stroke="#e3d7c8" stroke-width="1"/>
<text x="80" y="291.25" text-anchor="end" font-size="13" font-family="Georgia, serif" fill="#4b3f34">0.810</text>
<line x1="90" y1="227.50" x2="1080" y2="227.50" stroke="#e3d7c8" stroke-width="1"/>
<text x="80" y="232.50" text-anchor="end" font-size="13" font-family="Georgia, serif" fill="#4b3f34">0.842</text>
<line x1="90" y1="168.75" x2="1080" y2="168.75" stroke="#e3d7c8" stroke-width="1"/>
<text x="80" y="173.75" text-anchor="end" font-size="13" font-family="Georgia, serif" fill="#4b3f34">0.874</text>
<line x1="90" y1="110.00" x2="1080" y2="110.00" stroke="#e3d7c8" stroke-width="1"/>
<text x="80" y="115.00" text-anchor="end" font-size="13" font-family="Georgia, serif" fill="#4b3f34">0.906</text>
<line x1="90.00" y1="110" x2="90.00" y2="345" stroke="#efe5d8" stroke-width="1"/>
<text x="90.00" y="367" text-anchor="middle" font-size="13" font-family="Georgia, serif" fill="#4b3f34">1</text>
<line x1="337.50" y1="110" x2="337.50" y2="345" stroke="#efe5d8" stroke-width="1"/>
<text x="337.50" y="367" text-anchor="middle" font-size="13" font-family="Georgia, serif" fill="#4b3f34">2</text>
<line x1="585.00" y1="110" x2="585.00" y2="345" stroke="#efe5d8" stroke-width="1"/>
<text x="585.00" y="367" text-anchor="middle" font-size="13" font-family="Georgia, serif" fill="#4b3f34">3</text>
<line x1="832.50" y1="110" x2="832.50" y2="345" stroke="#efe5d8" stroke-width="1"/>
<text x="832.50" y="367" text-anchor="middle" font-size="13" font-family="Georgia, serif" fill="#4b3f34">4</text>
<line x1="1080.00" y1="110" x2="1080.00" y2="345" stroke="#efe5d8" stroke-width="1"/>
<text x="1080.00" y="367" text-anchor="middle" font-size="13" font-family="Georgia, serif" fill="#4b3f34">5</text>
<line x1="90" y1="260.37" x2="1080" y2="260.37" stroke="#6b5e53" stroke-dasharray="8 6" stroke-width="2"/>
<polyline points="90.00,193.84 337.50,193.84 585.00,182.74 832.50,169.93 1080.00,162.53" fill="none" stroke="#8b4513" stroke-width="3.6" stroke-linecap="round" stroke-linejoin="round"/>
<circle cx="90.00" cy="193.84" r="4.5" fill="#8b4513" stroke="#fbfaf6" stroke-width="1.8"/>
<circle cx="337.50" cy="193.84" r="4.5" fill="#8b4513" stroke="#fbfaf6" stroke-width="1.8"/>
<circle cx="585.00" cy="182.74" r="4.5" fill="#8b4513" stroke="#fbfaf6" stroke-width="1.8"/>
<circle cx="832.50" cy="169.93" r="4.5" fill="#8b4513" stroke="#fbfaf6" stroke-width="1.8"/>
<circle cx="1080.00" cy="162.53" r="4.5" fill="#8b4513" stroke="#fbfaf6" stroke-width="1.8"/>
<polyline points="90.00,182.63 337.50,165.24 585.00,147.14 832.50,146.71 1080.00,146.71" fill="none" stroke="#1f6f8b" stroke-width="3.6" stroke-linecap="round" stroke-linejoin="round"/>
<circle cx="90.00" cy="182.63" r="4.5" fill="#1f6f8b" stroke="#fbfaf6" stroke-width="1.8"/>
<circle cx="337.50" cy="165.24" r="4.5" fill="#1f6f8b" stroke="#fbfaf6" stroke-width="1.8"/>
<circle cx="585.00" cy="147.14" r="4.5" fill="#1f6f8b" stroke="#fbfaf6" stroke-width="1.8"/>
<circle cx="832.50" cy="146.71" r="4.5" fill="#1f6f8b" stroke="#fbfaf6" stroke-width="1.8"/>
<circle cx="1080.00" cy="146.71" r="4.5" fill="#1f6f8b" stroke="#fbfaf6" stroke-width="1.8"/>
<polyline points="90.00,213.62 337.50,196.77 585.00,182.84 832.50,182.84 1080.00,178.00" fill="none" stroke="#2d6a4f" stroke-width="3.6" stroke-linecap="round" stroke-linejoin="round"/>
<circle cx="90.00" cy="213.62" r="4.5" fill="#2d6a4f" stroke="#fbfaf6" stroke-width="1.8"/>
<circle cx="337.50" cy="196.77" r="4.5" fill="#2d6a4f" stroke="#fbfaf6" stroke-width="1.8"/>
<circle cx="585.00" cy="182.84" r="4.5" fill="#2d6a4f" stroke="#fbfaf6" stroke-width="1.8"/>
<circle cx="832.50" cy="182.84" r="4.5" fill="#2d6a4f" stroke="#fbfaf6" stroke-width="1.8"/>
<circle cx="1080.00" cy="178.00" r="4.5" fill="#2d6a4f" stroke="#fbfaf6" stroke-width="1.8"/>
<polyline points="90.00,178.38 337.50,174.81 585.00,174.81 832.50,159.49 1080.00,159.49" fill="none" stroke="#7c3aed" stroke-width="3.6" stroke-linecap="round" stroke-linejoin="round"/>
<circle cx="90.00" cy="178.38" r="4.5" fill="#7c3aed" stroke="#fbfaf6" stroke-width="1.8"/>
<circle cx="337.50" cy="174.81" r="4.5" fill="#7c3aed" stroke="#fbfaf6" stroke-width="1.8"/>
<circle cx="585.00" cy="174.81" r="4.5" fill="#7c3aed" stroke="#fbfaf6" stroke-width="1.8"/>
<circle cx="832.50" cy="159.49" r="4.5" fill="#7c3aed" stroke="#fbfaf6" stroke-width="1.8"/>
<circle cx="1080.00" cy="159.49" r="4.5" fill="#7c3aed" stroke="#fbfaf6" stroke-width="1.8"/>
<text x="90" y="381" font-size="18" font-family="Georgia, serif" fill="#1f1b17">DINOv2 cosine to target</text>
<line x1="90" y1="399" x2="90" y2="634" stroke="#4b3f34" stroke-width="2"/>
<line x1="90" y1="634" x2="1080" y2="634" stroke="#4b3f34" stroke-width="2"/>
<line x1="90" y1="634.00" x2="1080" y2="634.00" stroke="#e3d7c8" stroke-width="1"/>
<text x="80" y="639.00" text-anchor="end" font-size="13" font-family="Georgia, serif" fill="#4b3f34">0.444</text>
<line x1="90" y1="575.25" x2="1080" y2="575.25" stroke="#e3d7c8" stroke-width="1"/>
<text x="80" y="580.25" text-anchor="end" font-size="13" font-family="Georgia, serif" fill="#4b3f34">0.509</text>
<line x1="90" y1="516.50" x2="1080" y2="516.50" stroke="#e3d7c8" stroke-width="1"/>
<text x="80" y="521.50" text-anchor="end" font-size="13" font-family="Georgia, serif" fill="#4b3f34">0.575</text>
<line x1="90" y1="457.75" x2="1080" y2="457.75" stroke="#e3d7c8" stroke-width="1"/>
<text x="80" y="462.75" text-anchor="end" font-size="13" font-family="Georgia, serif" fill="#4b3f34">0.641</text>
<line x1="90" y1="399.00" x2="1080" y2="399.00" stroke="#e3d7c8" stroke-width="1"/>
<text x="80" y="404.00" text-anchor="end" font-size="13" font-family="Georgia, serif" fill="#4b3f34">0.707</text>
<line x1="90.00" y1="399" x2="90.00" y2="634" stroke="#efe5d8" stroke-width="1"/>
<text x="90.00" y="656" text-anchor="middle" font-size="13" font-family="Georgia, serif" fill="#4b3f34">1</text>
<line x1="337.50" y1="399" x2="337.50" y2="634" stroke="#efe5d8" stroke-width="1"/>
<text x="337.50" y="656" text-anchor="middle" font-size="13" font-family="Georgia, serif" fill="#4b3f34">2</text>
<line x1="585.00" y1="399" x2="585.00" y2="634" stroke="#efe5d8" stroke-width="1"/>
<text x="585.00" y="656" text-anchor="middle" font-size="13" font-family="Georgia, serif" fill="#4b3f34">3</text>
<line x1="832.50" y1="399" x2="832.50" y2="634" stroke="#efe5d8" stroke-width="1"/>
<text x="832.50" y="656" text-anchor="middle" font-size="13" font-family="Georgia, serif" fill="#4b3f34">4</text>
<line x1="1080.00" y1="399" x2="1080.00" y2="634" stroke="#efe5d8" stroke-width="1"/>
<text x="1080.00" y="656" text-anchor="middle" font-size="13" font-family="Georgia, serif" fill="#4b3f34">5</text>
<line x1="90" y1="561.94" x2="1080" y2="561.94" stroke="#6b5e53" stroke-dasharray="8 6" stroke-width="2"/>
<polyline points="90.00,561.35 337.50,561.35 585.00,553.11 832.50,552.52 1080.00,552.52" fill="none" stroke="#8b4513" stroke-width="3.6" stroke-linecap="round" stroke-linejoin="round"/>
<circle cx="90.00" cy="561.35" r="4.5" fill="#8b4513" stroke="#fbfaf6" stroke-width="1.8"/>
<circle cx="337.50" cy="561.35" r="4.5" fill="#8b4513" stroke="#fbfaf6" stroke-width="1.8"/>
<circle cx="585.00" cy="553.11" r="4.5" fill="#8b4513" stroke="#fbfaf6" stroke-width="1.8"/>
<circle cx="832.50" cy="552.52" r="4.5" fill="#8b4513" stroke="#fbfaf6" stroke-width="1.8"/>
<circle cx="1080.00" cy="552.52" r="4.5" fill="#8b4513" stroke="#fbfaf6" stroke-width="1.8"/>
<polyline points="90.00,452.18 337.50,430.60 585.00,416.87 832.50,416.87 1080.00,416.87" fill="none" stroke="#1f6f8b" stroke-width="3.6" stroke-linecap="round" stroke-linejoin="round"/>
<circle cx="90.00" cy="452.18" r="4.5" fill="#1f6f8b" stroke="#fbfaf6" stroke-width="1.8"/>
<circle cx="337.50" cy="430.60" r="4.5" fill="#1f6f8b" stroke="#fbfaf6" stroke-width="1.8"/>
<circle cx="585.00" cy="416.87" r="4.5" fill="#1f6f8b" stroke="#fbfaf6" stroke-width="1.8"/>
<circle cx="832.50" cy="416.87" r="4.5" fill="#1f6f8b" stroke="#fbfaf6" stroke-width="1.8"/>
<circle cx="1080.00" cy="416.87" r="4.5" fill="#1f6f8b" stroke="#fbfaf6" stroke-width="1.8"/>
<polyline points="90.00,514.66 337.50,486.11 585.00,455.57 832.50,455.57 1080.00,455.57" fill="none" stroke="#2d6a4f" stroke-width="3.6" stroke-linecap="round" stroke-linejoin="round"/>
<circle cx="90.00" cy="514.66" r="4.5" fill="#2d6a4f" stroke="#fbfaf6" stroke-width="1.8"/>
<circle cx="337.50" cy="486.11" r="4.5" fill="#2d6a4f" stroke="#fbfaf6" stroke-width="1.8"/>
<circle cx="585.00" cy="455.57" r="4.5" fill="#2d6a4f" stroke="#fbfaf6" stroke-width="1.8"/>
<circle cx="832.50" cy="455.57" r="4.5" fill="#2d6a4f" stroke="#fbfaf6" stroke-width="1.8"/>
<circle cx="1080.00" cy="455.57" r="4.5" fill="#2d6a4f" stroke="#fbfaf6" stroke-width="1.8"/>
<polyline points="90.00,565.59 337.50,548.06 585.00,548.06 832.50,511.22 1080.00,511.22" fill="none" stroke="#7c3aed" stroke-width="3.6" stroke-linecap="round" stroke-linejoin="round"/>
<circle cx="90.00" cy="565.59" r="4.5" fill="#7c3aed" stroke="#fbfaf6" stroke-width="1.8"/>
<circle cx="337.50" cy="548.06" r="4.5" fill="#7c3aed" stroke="#fbfaf6" stroke-width="1.8"/>
<circle cx="585.00" cy="548.06" r="4.5" fill="#7c3aed" stroke="#fbfaf6" stroke-width="1.8"/>
<circle cx="832.50" cy="511.22" r="4.5" fill="#7c3aed" stroke="#fbfaf6" stroke-width="1.8"/>
<circle cx="1080.00" cy="511.22" r="4.5" fill="#7c3aed" stroke="#fbfaf6" stroke-width="1.8"/>
<rect x="850" y="84" width="214" height="122" rx="12" fill="#fffdfa" stroke="#d8cbb9"/>
<line x1="864" y1="108" x2="884" y2="108" stroke="#8b4513" stroke-width="4" stroke-linecap="round"/>
<text x="892" y="113" font-size="13" font-family="Georgia, serif" fill="#1f1b17">Borda preference</text>
<line x1="864" y1="130" x2="884" y2="130" stroke="#1f6f8b" stroke-width="4" stroke-linecap="round"/>
<text x="892" y="135" font-size="13" font-family="Georgia, serif" fill="#1f1b17">Bradley-Terry preference</text>
<line x1="864" y1="152" x2="884" y2="152" stroke="#2d6a4f" stroke-width="4" stroke-linecap="round"/>
<text x="892" y="157" font-size="13" font-family="Georgia, serif" fill="#1f1b17">Score-weighted preference</text>
<line x1="864" y1="174" x2="884" y2="174" stroke="#7c3aed" stroke-width="4" stroke-linecap="round"/>
<text x="892" y="179" font-size="13" font-family="Georgia, serif" fill="#1f1b17">Softmax preference</text>
</svg>