<svg xmlns="http://www.w3.org/2000/svg" width="1140" height="760" viewBox="0 0 1140 760">
<rect width="100%" height="100%" fill="#fbfaf6"/>
<text x="90" y="42" font-size="28" font-family="Georgia, serif" fill="#1f1b17">Steering-mode comparison: hidden-target recovery</text>
<text x="90" y="66" font-size="16" font-family="Georgia, serif" fill="#4b3f34">Round-wise mean best similarity under CLIP and DINOv2 evaluation</text>
<text x="90" y="92" font-size="18" font-family="Georgia, serif" fill="#1f1b17">CLIP cosine to target</text>
<line x1="90" y1="110" x2="90" y2="345" stroke="#4b3f34" stroke-width="2"/>
<line x1="90" y1="345" x2="1080" y2="345" stroke="#4b3f34" stroke-width="2"/>
<line x1="90" y1="345.00" x2="1080" y2="345.00" stroke="#e3d7c8" stroke-width="1"/>
<text x="80" y="350.00" text-anchor="end" font-size="13" font-family="Georgia, serif" fill="#4b3f34">0.796</text>
<line x1="90" y1="286.25" x2="1080" y2="286.25" stroke="#e3d7c8" stroke-width="1"/>
<text x="80" y="291.25" text-anchor="end" font-size="13" font-family="Georgia, serif" fill="#4b3f34">0.823</text>
<line x1="90" y1="227.50" x2="1080" y2="227.50" stroke="#e3d7c8" stroke-width="1"/>
<text x="80" y="232.50" text-anchor="end" font-size="13" font-family="Georgia, serif" fill="#4b3f34">0.850</text>
<line x1="90" y1="168.75" x2="1080" y2="168.75" stroke="#e3d7c8" stroke-width="1"/>
<text x="80" y="173.75" text-anchor="end" font-size="13" font-family="Georgia, serif" fill="#4b3f34">0.877</text>
<line x1="90" y1="110.00" x2="1080" y2="110.00" stroke="#e3d7c8" stroke-width="1"/>
<text x="80" y="115.00" text-anchor="end" font-size="13" font-family="Georgia, serif" fill="#4b3f34">0.904</text>
<line x1="90.00" y1="110" x2="90.00" y2="345" stroke="#efe5d8" stroke-width="1"/>
<text x="90.00" y="367" text-anchor="middle" font-size="13" font-family="Georgia, serif" fill="#4b3f34">1</text>
<line x1="337.50" y1="110" x2="337.50" y2="345" stroke="#efe5d8" stroke-width="1"/>
<text x="337.50" y="367" text-anchor="middle" font-size="13" font-family="Georgia, serif" fill="#4b3f34">2</text>
<line x1="585.00" y1="110" x2="585.00" y2="345" stroke="#efe5d8" stroke-width="1"/>
<text x="585.00" y="367" text-anchor="middle" font-size="13" font-family="Georgia, serif" fill="#4b3f34">3</text>
<line x1="832.50" y1="110" x2="832.50" y2="345" stroke="#efe5d8" stroke-width="1"/>
<text x="832.50" y="367" text-anchor="middle" font-size="13" font-family="Georgia, serif" fill="#4b3f34">4</text>
<line x1="1080.00" y1="110" x2="1080.00" y2="345" stroke="#efe5d8" stroke-width="1"/>
<text x="1080.00" y="367" text-anchor="middle" font-size="13" font-family="Georgia, serif" fill="#4b3f34">5</text>
<line x1="90" y1="286.10" x2="1080" y2="286.10" stroke="#6b5e53" stroke-dasharray="8 6" stroke-width="2"/>
<polyline points="90.00,165.47 337.50,153.55 585.00,153.55 832.50,153.55 1080.00,153.55" fill="none" stroke="#8b4513" stroke-width="3.6" stroke-linecap="round" stroke-linejoin="round"/>
<circle cx="90.00" cy="165.47" r="4.5" fill="#8b4513" stroke="#fbfaf6" stroke-width="1.8"/>
<circle cx="337.50" cy="153.55" r="4.5" fill="#8b4513" stroke="#fbfaf6" stroke-width="1.8"/>
<circle cx="585.00" cy="153.55" r="4.5" fill="#8b4513" stroke="#fbfaf6" stroke-width="1.8"/>
<circle cx="832.50" cy="153.55" r="4.5" fill="#8b4513" stroke="#fbfaf6" stroke-width="1.8"/>
<circle cx="1080.00" cy="153.55" r="4.5" fill="#8b4513" stroke="#fbfaf6" stroke-width="1.8"/>
<polyline points="90.00,244.55 337.50,213.97 585.00,181.41 832.50,164.69 1080.00,164.69" fill="none" stroke="#1f6f8b" stroke-width="3.6" stroke-linecap="round" stroke-linejoin="round"/>
<circle cx="90.00" cy="244.55" r="4.5" fill="#1f6f8b" stroke="#fbfaf6" stroke-width="1.8"/>
<circle cx="337.50" cy="213.97" r="4.5" fill="#1f6f8b" stroke="#fbfaf6" stroke-width="1.8"/>
<circle cx="585.00" cy="181.41" r="4.5" fill="#1f6f8b" stroke="#fbfaf6" stroke-width="1.8"/>
<circle cx="832.50" cy="164.69" r="4.5" fill="#1f6f8b" stroke="#fbfaf6" stroke-width="1.8"/>
<circle cx="1080.00" cy="164.69" r="4.5" fill="#1f6f8b" stroke="#fbfaf6" stroke-width="1.8"/>
<polyline points="90.00,224.05 337.50,173.94 585.00,164.37 832.50,164.37 1080.00,164.37" fill="none" stroke="#2d6a4f" stroke-width="3.6" stroke-linecap="round" stroke-linejoin="round"/>
<circle cx="90.00" cy="224.05" r="4.5" fill="#2d6a4f" stroke="#fbfaf6" stroke-width="1.8"/>
<circle cx="337.50" cy="173.94" r="4.5" fill="#2d6a4f" stroke="#fbfaf6" stroke-width="1.8"/>
<circle cx="585.00" cy="164.37" r="4.5" fill="#2d6a4f" stroke="#fbfaf6" stroke-width="1.8"/>
<circle cx="832.50" cy="164.37" r="4.5" fill="#2d6a4f" stroke="#fbfaf6" stroke-width="1.8"/>
<circle cx="1080.00" cy="164.37" r="4.5" fill="#2d6a4f" stroke="#fbfaf6" stroke-width="1.8"/>
<polyline points="90.00,233.07 337.50,203.06 585.00,162.77 832.50,158.33 1080.00,158.33" fill="none" stroke="#7c3aed" stroke-width="3.6" stroke-linecap="round" stroke-linejoin="round"/>
<circle cx="90.00" cy="233.07" r="4.5" fill="#7c3aed" stroke="#fbfaf6" stroke-width="1.8"/>
<circle cx="337.50" cy="203.06" r="4.5" fill="#7c3aed" stroke="#fbfaf6" stroke-width="1.8"/>
<circle cx="585.00" cy="162.77" r="4.5" fill="#7c3aed" stroke="#fbfaf6" stroke-width="1.8"/>
<circle cx="832.50" cy="158.33" r="4.5" fill="#7c3aed" stroke="#fbfaf6" stroke-width="1.8"/>
<circle cx="1080.00" cy="158.33" r="4.5" fill="#7c3aed" stroke="#fbfaf6" stroke-width="1.8"/>
<text x="90" y="381" font-size="18" font-family="Georgia, serif" fill="#1f1b17">DINOv2 cosine to target</text>
<line x1="90" y1="399" x2="90" y2="634" stroke="#4b3f34" stroke-width="2"/>
<line x1="90" y1="634" x2="1080" y2="634" stroke="#4b3f34" stroke-width="2"/>
<line x1="90" y1="634.00" x2="1080" y2="634.00" stroke="#e3d7c8" stroke-width="1"/>
<text x="80" y="639.00" text-anchor="end" font-size="13" font-family="Georgia, serif" fill="#4b3f34">0.307</text>
<line x1="90" y1="575.25" x2="1080" y2="575.25" stroke="#e3d7c8" stroke-width="1"/>
<text x="80" y="580.25" text-anchor="end" font-size="13" font-family="Georgia, serif" fill="#4b3f34">0.396</text>
<line x1="90" y1="516.50" x2="1080" y2="516.50" stroke="#e3d7c8" stroke-width="1"/>
<text x="80" y="521.50" text-anchor="end" font-size="13" font-family="Georgia, serif" fill="#4b3f34">0.485</text>
<line x1="90" y1="457.75" x2="1080" y2="457.75" stroke="#e3d7c8" stroke-width="1"/>
<text x="80" y="462.75" text-anchor="end" font-size="13" font-family="Georgia, serif" fill="#4b3f34">0.574</text>
<line x1="90" y1="399.00" x2="1080" y2="399.00" stroke="#e3d7c8" stroke-width="1"/>
<text x="80" y="404.00" text-anchor="end" font-size="13" font-family="Georgia, serif" fill="#4b3f34">0.663</text>
<line x1="90.00" y1="399" x2="90.00" y2="634" stroke="#efe5d8" stroke-width="1"/>
<text x="90.00" y="656" text-anchor="middle" font-size="13" font-family="Georgia, serif" fill="#4b3f34">1</text>
<line x1="337.50" y1="399" x2="337.50" y2="634" stroke="#efe5d8" stroke-width="1"/>
<text x="337.50" y="656" text-anchor="middle" font-size="13" font-family="Georgia, serif" fill="#4b3f34">2</text>
<line x1="585.00" y1="399" x2="585.00" y2="634" stroke="#efe5d8" stroke-width="1"/>
<text x="585.00" y="656" text-anchor="middle" font-size="13" font-family="Georgia, serif" fill="#4b3f34">3</text>
<line x1="832.50" y1="399" x2="832.50" y2="634" stroke="#efe5d8" stroke-width="1"/>
<text x="832.50" y="656" text-anchor="middle" font-size="13" font-family="Georgia, serif" fill="#4b3f34">4</text>
<line x1="1080.00" y1="399" x2="1080.00" y2="634" stroke="#efe5d8" stroke-width="1"/>
<text x="1080.00" y="656" text-anchor="middle" font-size="13" font-family="Georgia, serif" fill="#4b3f34">5</text>
<line x1="90" y1="595.78" x2="1080" y2="595.78" stroke="#6b5e53" stroke-dasharray="8 6" stroke-width="2"/>
<polyline points="90.00,528.33 337.50,470.11 585.00,462.07 832.50,462.07 1080.00,458.10" fill="none" stroke="#8b4513" stroke-width="3.6" stroke-linecap="round" stroke-linejoin="round"/>
<circle cx="90.00" cy="528.33" r="4.5" fill="#8b4513" stroke="#fbfaf6" stroke-width="1.8"/>
<circle cx="337.50" cy="470.11" r="4.5" fill="#8b4513" stroke="#fbfaf6" stroke-width="1.8"/>
<circle cx="585.00" cy="462.07" r="4.5" fill="#8b4513" stroke="#fbfaf6" stroke-width="1.8"/>
<circle cx="832.50" cy="462.07" r="4.5" fill="#8b4513" stroke="#fbfaf6" stroke-width="1.8"/>
<circle cx="1080.00" cy="458.10" r="4.5" fill="#8b4513" stroke="#fbfaf6" stroke-width="1.8"/>
<polyline points="90.00,553.87 337.50,463.85 585.00,463.85 832.50,412.21 1080.00,412.21" fill="none" stroke="#1f6f8b" stroke-width="3.6" stroke-linecap="round" stroke-linejoin="round"/>
<circle cx="90.00" cy="553.87" r="4.5" fill="#1f6f8b" stroke="#fbfaf6" stroke-width="1.8"/>
<circle cx="337.50" cy="463.85" r="4.5" fill="#1f6f8b" stroke="#fbfaf6" stroke-width="1.8"/>
<circle cx="585.00" cy="463.85" r="4.5" fill="#1f6f8b" stroke="#fbfaf6" stroke-width="1.8"/>
<circle cx="832.50" cy="412.21" r="4.5" fill="#1f6f8b" stroke="#fbfaf6" stroke-width="1.8"/>
<circle cx="1080.00" cy="412.21" r="4.5" fill="#1f6f8b" stroke="#fbfaf6" stroke-width="1.8"/>
<polyline points="90.00,492.63 337.50,446.61 585.00,414.88 832.50,414.88 1080.00,414.88" fill="none" stroke="#2d6a4f" stroke-width="3.6" stroke-linecap="round" stroke-linejoin="round"/>
<circle cx="90.00" cy="492.63" r="4.5" fill="#2d6a4f" stroke="#fbfaf6" stroke-width="1.8"/>
<circle cx="337.50" cy="446.61" r="4.5" fill="#2d6a4f" stroke="#fbfaf6" stroke-width="1.8"/>
<circle cx="585.00" cy="414.88" r="4.5" fill="#2d6a4f" stroke="#fbfaf6" stroke-width="1.8"/>
<circle cx="832.50" cy="414.88" r="4.5" fill="#2d6a4f" stroke="#fbfaf6" stroke-width="1.8"/>
<circle cx="1080.00" cy="414.88" r="4.5" fill="#2d6a4f" stroke="#fbfaf6" stroke-width="1.8"/>
<polyline points="90.00,502.22 337.50,502.22 585.00,502.22 832.50,472.68 1080.00,425.75" fill="none" stroke="#7c3aed" stroke-width="3.6" stroke-linecap="round" stroke-linejoin="round"/>
<circle cx="90.00" cy="502.22" r="4.5" fill="#7c3aed" stroke="#fbfaf6" stroke-width="1.8"/>
<circle cx="337.50" cy="502.22" r="4.5" fill="#7c3aed" stroke="#fbfaf6" stroke-width="1.8"/>
<circle cx="585.00" cy="502.22" r="4.5" fill="#7c3aed" stroke="#fbfaf6" stroke-width="1.8"/>
<circle cx="832.50" cy="472.68" r="4.5" fill="#7c3aed" stroke="#fbfaf6" stroke-width="1.8"/>
<circle cx="1080.00" cy="425.75" r="4.5" fill="#7c3aed" stroke="#fbfaf6" stroke-width="1.8"/>
<rect x="850" y="84" width="214" height="122" rx="12" fill="#fffdfa" stroke="#d8cbb9"/>
<line x1="864" y1="108" x2="884" y2="108" stroke="#8b4513" stroke-width="4" stroke-linecap="round"/>
<text x="892" y="113" font-size="13" font-family="Georgia, serif" fill="#1f1b17">Content-masked offset</text>
<line x1="864" y1="130" x2="884" y2="130" stroke="#1f6f8b" stroke-width="4" stroke-linecap="round"/>
<text x="892" y="135" font-size="13" font-family="Georgia, serif" fill="#1f1b17">Shared-token offset</text>
<line x1="864" y1="152" x2="884" y2="152" stroke="#2d6a4f" stroke-width="4" stroke-linecap="round"/>
<text x="892" y="157" font-size="13" font-family="Georgia, serif" fill="#1f1b17">Token-factorized offset</text>
<line x1="864" y1="174" x2="884" y2="174" stroke="#7c3aed" stroke-width="4" stroke-linecap="round"/>
<text x="892" y="179" font-size="13" font-family="Georgia, serif" fill="#1f1b17">Token-vector-field offset</text>
</svg>